<?xml version="1.0" encoding="utf-8"?>
<!-- Generator: Adobe Illustrator 19.2.1, SVG Export Plug-In . SVG Version: 6.00 Build 0)  -->
<svg version="1.1" id="Capa_1" xmlns="http://www.w3.org/2000/svg" xmlns:xlink="http://www.w3.org/1999/xlink" x="0px" y="0px"
	 viewBox="0 0 568.5 183" style="enable-background:new 0 0 568.5 183;" xml:space="preserve">
<style type="text/css">
	.st0{opacity:0.15;fill:#FFFFFF;}
	.st1{fill-rule:evenodd;clip-rule:evenodd;fill:#FFFFFF;}
	.st2{fill-rule:evenodd;clip-rule:evenodd;fill:none;stroke:#FFFFFF;stroke-width:0.5149;stroke-miterlimit:22.926;}
	.st3{fill-rule:evenodd;clip-rule:evenodd;fill:none;stroke:#FFFFFF;stroke-width:0.3433;stroke-miterlimit:22.926;}
	.st4{fill-rule:evenodd;clip-rule:evenodd;fill:none;stroke:#FFFFFF;stroke-width:0.5149;stroke-miterlimit:10;}
	.st5{fill-rule:evenodd;clip-rule:evenodd;fill:none;stroke:#FFFFFF;stroke-width:0.6866;stroke-miterlimit:10;}
	.st6{fill-rule:evenodd;clip-rule:evenodd;fill:none;}
	.st7{fill-rule:evenodd;clip-rule:evenodd;fill:none;stroke:#FFFFFF;stroke-width:0.6866;stroke-miterlimit:22.926;}
	.st8{fill:#FFFFFF;}
	.st9{fill:#FFFFFF;stroke:#FFFFFF;stroke-width:1.7919;stroke-miterlimit:10;}
</style>
<g>
	<path id="XMLID_481_" class="st0" d="M79.5,65.2l0,26.9H60.1c0,0,0.4-9.7,4.7-16.9C70.8,65.1,79.5,65.2,79.5,65.2z"/>
	<path id="XMLID_480_" class="st0" d="M79.5,119.2l0-26.9h19.4c0,0-0.4,9.7-4.7,16.9C88.1,119.3,79.5,119.2,79.5,119.2z"/>
	<path id="XMLID_477_" class="st1" d="M79.5,28.8c-5.2,0-10.3,0.9-15.1,2.7C39.9,40.4,27,67.3,27,92.1c0,24.8,12.8,51.8,37.3,60.7
		c4.9,1.8,10,2.7,15.1,2.7c5.2,0,10.3-0.9,15.1-2.7c24.4-8.9,37.3-35.9,37.3-60.7c0-24.8-12.8-51.8-37.3-60.7
		C89.7,29.7,84.6,28.8,79.5,28.8 M79.5,25.8c5.5,0,11,1,16.2,2.9c25.6,9.4,39.2,37.4,39.2,63.5c0,26.1-13.6,54.1-39.2,63.5
		c-5.2,1.9-10.6,2.9-16.2,2.9c-5.5,0-11-1-16.2-2.9c-25.6-9.4-39.2-37.4-39.2-63.5c0-26.1,13.6-54.1,39.2-63.5
		C68.5,26.8,73.9,25.8,79.5,25.8"/>
	<path id="XMLID_476_" class="st2" d="M75.4,60.6c0.4-1.4,1-4.1-0.1-5.2c-1.7-0.9-5.7-0.1-5.8-2.8l0-0.5l0.5,0.1
		c1.3,0.2,2.8,0.2,4.1,0.1c-1.4-1.2-3-1.6-4.8-0.5L68.9,52l-0.2-0.3c-1.4-2-1.4-3.6,1.1-4.4l0,0l0,0c1-0.2,1.9-0.3,2.9-0.2
		c-0.7-1-0.2-2.5,1.3-2.7l0,0h0c1.7-0.1,3.1-0.1,4.4-1.3l0,0l0,0c1.4-0.8,3.5-0.9,4.7,0.4c0.3,0.4,0.5,0.9,0.5,1.4
		c0,1.1-0.8,1.9-1.7,2.4c1.6,0.8,2.7,2.2,3,4.1c0.2,1.4-0.2,2.9-1.1,4.1c-1.1,1.5-1.1,3.1-0.8,4.8c0.4-0.1,0.8-0.3,1.1-0.4l0,0l0,0
		c3.8-1.2,5.5,4.8,2,6.5l-0.2,0.1l-0.4-0.2c-1.4-0.7-2.8-1.1-4.3-1.4h0c-0.2,0-0.3,0-0.5-0.1h0c-0.1,0-0.3,0-0.4,0l-0.1,0
		c-0.1,0-0.2,0-0.3,0l-0.1,0l-0.1,0l-0.3,0c-0.1,0-0.1,0-0.2,0h0c-2.4,0-4.7,0.7-6.8,1.9l-0.2,0.1L72,66.5c-3.1-2.5-2.4-7,2-6.3
		c0.5,0.1,0.9,0.1,1.4,0.2"/>
	<path id="XMLID_475_" class="st1" d="M79.6,152L79.6,152c-3-0.3-1.3-5.3-1.9-7.9c-1.6,2.1-5.9,6.7-7.4,3.9c3.8-2.6,4.9-5.1,4.9-6.8
		c-3,4.7-7.5,6.1-8.1,2.1c3.9-1.5,6.2-3.4,6-6.3c-3.2,5-7.4,6.4-8.2,2.2c2.7-0.1,4.5-1.7,4.9-3.5c-3.5,2.1-7.2,3.3-6.9-1
		c3,0,5.1-0.5,6.1-2.6c-3.2,1.2-4.8,1.7-6.5,0.9c-1.3-0.7-0.9-3.2,0.5-3c2.7,0.5,4.7-0.5,6.4-2.3c-9.5,2.8-8.2-3.2-6.1-3
		c4.8,1.1,8.5-0.6,10.5-5.2c1.8,0.7,3.6,1,5.6,1c1.8,0,3.6-0.3,5.3-1c2.1,4.6,5.9,6.2,10.7,5.1c2.2-0.2,3.4,5.8-6,3
		c1.7,1.8,3.7,2.8,6.4,2.3c1.4-0.2,1.9,2.3,0.6,3c-1.8,0.9-3.4,0.4-6.5-0.9c1,2.1,3.1,2.6,6.1,2.6c0.3,4.3-3.3,3.1-6.8,1
		c0.4,1.8,2.2,3.4,5,3.5c-0.7,4.2-5,2.8-8.2-2.2c-0.1,2.9,2.2,4.8,6.1,6.3c-0.6,4-5.1,2.5-8.1-2.1c0.1,1.7,1.1,4.2,5,6.8
		c-1.4,2.9-5.8-1.8-7.4-3.9C80.8,146.7,82.5,151.7,79.6,152"/>
	<path id="XMLID_472_" class="st1" d="M79.3,12.6c7.1,0,14.1,1.3,20.7,3.7c30.9,11.3,47.8,44,47.8,75.6c0,31.6-16.9,64.4-47.8,75.6
		c-6.7,2.4-13.6,3.7-20.7,3.7c-7.1,0-14.1-1.2-20.7-3.7c-30.9-11.3-47.8-44-47.8-75.6c0-31.6,16.9-64.4,47.8-75.6
		C65.2,13.9,72.2,12.6,79.3,12.6 M79.3,9.6c7.4,0,14.8,1.3,21.7,3.9c32.1,11.7,49.8,45.6,49.8,78.4c0,32.9-17.7,66.7-49.8,78.4
		c-7,2.5-14.3,3.9-21.7,3.9c-7.4,0-14.8-1.3-21.7-3.9C25.5,158.7,7.8,124.8,7.8,91.9c0-32.9,17.7-66.7,49.8-78.4
		C64.5,11,71.8,9.6,79.3,9.6"/>
	<polygon id="XMLID_471_" class="st3" points="61.6,92.3 79.5,76.4 97.3,92.3 	"/>
	<polygon id="XMLID_470_" class="st1" points="71.5,91.9 79.5,84.4 88.4,91.9 	"/>
	<path id="XMLID_469_" class="st4" d="M58.1,53.5c-1.7-3.6-0.7-6,1.4-8.2c1.5-2.2-1-3.6-2.6-1.9c-2.6,3.4-2.9,7.6-0.5,12.7
		c-0.1,0.2-0.1,0.3-0.1,0.5c-2.4-0.5-4.9-4.6-3.3-10.3c1.9-5.1,5.8-7.3,11.1-7.5c5.3,0.5,3.8-4,0.7-3.9c-7.3-0.1-14.2,4.1-15.5,10.9
		c-0.7,4.8,0.7,8.8,4.5,11.8c-0.5,0.6-0.8,1.3-0.9,2.1c-3.5-2.6-7.2-7.9-5.4-12.1c1.1-2.9-1.3-3.3-2.6-1c-3.4,5,0.8,12,5.5,14.7
		c-0.1,0.5-0.1,1-0.1,1.6c-3.3-2.3-6.2-5.4-7.6-8.7c-1.1-2.2-3.8-1.1-2.6,1.2c1.9,3.8,4.8,6.6,8.2,9c-0.1,0.7-0.1,1.4,0.1,2.1
		c-2.2-1-7.6-5.6-8.7-8.4C38,57,36,58.2,37,60.1c2.5,3.8,5.6,6.4,9.4,7.9c-0.1,0.8,0.1,1.5,0.4,2.2c-4.1-1.7-7.5-4.1-9.8-7.5
		c-1.1-1.4-3.3,0-2.2,1.9c3.5,4.2,7.1,6.7,11.3,7.5c-0.1,0.7,0.1,1.4,0.5,2c-4.2-1.1-8.1-3-11.4-5.8c-2.1-1.4-3.7,1.5-1.7,2.8
		c4.1,2.6,7.6,4.1,11.7,5c0,0.2,0.1,0.3,0.1,0.5c-1.4,0.4-3.2,0.3-4.9-0.2c-3.1-0.7-5.1-2.6-7.6-3.9c-1.7-0.7-2.6,1.1-1.3,2.3
		c4.5,3.3,9.2,3.9,14.6,3.6c0.2,0.3,0.5,0.6,0.8,0.9c-0.7,0.1-1.4-0.1-1.9-0.3l-0.5-0.1l0,0.5c0,0.2,0,0.5,0.1,0.7
		c-4.5,0.3-8.7-0.4-12.2-2.6c-2-1.1-3.2,1.4-1.5,2.7c4.2,2.2,10.2,3.1,15.1,1.4c0.6,0.4,1.2,0.8,1.7,1.1c-1.1,0.1-2.1,0-3.2-0.1
		L44,82.6l0.2,0.6c0.1,0.3,0.2,0.5,0.4,0.7c-4.9,0.9-9.5,1.1-12.7-0.8c-2.1-1.2-3.2,0.9-2,1.9c4.5,3.1,10.3,2.4,16.7,0.4
		c0.3,0.1,0.6,0.3,0.9,0.4C46.7,86,45.7,86,45.2,86l-0.4,0l0,0.4c0,0.3,0.1,0.7,0.2,0.9c-2.6,1.6-6.1,2.4-12.2,1.4
		c-2.9-0.4-2.8,2.8-0.2,3c5.4,0.6,9.8,0,14.1-2.7c0.5,0.2,1,0.4,1.4,0.6c-3.2,2.8-7.4,5.3-13.3,4.6c-2.4-0.3-2.9,2.3-1.1,2.8
		c4.7,0.5,9.7-1.3,14.3-4.7c0.2,0,0.3,0.1,0.5,0.1c-1.3,2.7-4.6,5-8.2,5.7c-2.5,0.6-1.6,3.3,0.3,2.9c5.7-1.5,8.2-4.7,9.8-8.4
		c0.6,0,1.2-0.1,1.7-0.2c-0.3,0.7-1.1,1.4-1.6,1.8l-0.4,0.3l0.4,0.3c0.1,0.1,0.3,0.2,0.5,0.4c-0.9,2.3-2.9,4.3-6.5,6.2
		c-1.7,0.7-0.8,3.3,1.1,2.5c4.2-2.2,6.3-4.9,7.2-7.9c0.5,0.1,1.1,0.2,1.6,0.3c-0.1,0.7-0.7,1.7-1,2.1L53,98.8l0.3,0.1
		c-1.3,2.2-2.8,3.9-4.8,5.2c-1.9,0.8-0.7,3.1,1.3,2c2.6-2,4.7-4.1,5.6-7c0.5,0,1-0.1,1.5-0.2c0.2,0.5,0,1.1-0.2,1.5l-0.2,0.4
		c-0.9,1.8-1.9,3.6-3.5,5.1c-1.5,1.3-0.1,2.6,1,1.9c2.6-2.2,3.9-4.8,4.1-7.5c0.5-0.4,0.9-0.8,1.4-1.2c0.3,3.3-0.4,5.5-1.7,7.3
		c-0.9,1.3,0.3,2.8,1.6,1.7c1-0.9,1.6-2.6,1.9-4.6c-1-3.4-1.6-7.2-1.6-11.1c0-10.5,4.1-19.7,10.1-24.5l-0.1-0.1
		c-1.7-1.2-2.3-3.1-0.9-4.8l0,0l0,0c1-1.6,1.5-3.6,0.3-5.2c-1.1-1.4-3.1-1.8-4.8-1.4l0,0l0,0c-3.3,1.5-4.2-0.4-4.2-3.4l0-0.6
		l-0.6,0.3c-0.5,0.3-1.2,0.8-1.6,1"/>
	<path id="XMLID_468_" class="st5" d="M100.7,53.8c1.7-3.6,0.9-6.3-1.2-8.5c-1.5-2.2,1-3.6,2.6-1.9c2.6,3.4,2.9,7.6,0.5,12.7
		c0.1,0.2,0.1,0.3,0.1,0.5c2.4-0.5,4.9-4.6,3.3-10.3c-1.9-5.1-5.8-7.3-11.1-7.5c-5.3,0.5-3.8-4-0.7-3.9c7.3-0.1,14.2,4.1,15.5,10.9
		c0.7,4.8-0.7,8.8-4.5,11.8c0.5,0.6,0.8,1.3,0.9,2.1c3.5-2.6,7.2-7.9,5.4-12.1c-1.1-2.9,1.3-3.3,2.6-1c3.4,5-0.8,12-5.5,14.7
		c0.1,0.5,0.1,1,0.1,1.6c3.3-2.3,6.2-5.4,7.6-8.7c1.1-2.2,3.8-1.1,2.6,1.2c-1.9,3.8-4.8,6.6-8.2,9c0.1,0.7,0.1,1.4-0.1,2.1
		c2.2-1,7.6-5.6,8.7-8.4c1.5-1.2,3.6,0.1,2.5,1.9c-2.5,3.8-5.6,6.4-9.4,7.9c0.1,0.8-0.1,1.5-0.4,2.2c4.1-1.7,7.5-4.1,9.8-7.5
		c1.1-1.4,3.3,0,2.2,1.9c-3.5,4.2-7.1,6.7-11.3,7.5c0.1,0.7-0.2,1.4-0.5,2c4.2-1.1,8.1-3,11.4-5.8c2.1-1.4,3.7,1.5,1.7,2.8
		c-4.1,2.6-7.6,4.1-11.7,5c0,0.2-0.1,0.3-0.1,0.5c1.4,0.4,3.2,0.3,4.9-0.2c3.1-0.7,5.1-2.6,7.6-3.9c1.7-0.7,2.6,1.1,1.3,2.3
		c-4.5,3.3-9.2,3.9-14.6,3.6c-0.2,0.3-0.5,0.6-0.8,0.9c0.6,0.1,1.3-0.1,1.9-0.3l0.5-0.1l0,0.5c0,0.2,0,0.5-0.1,0.7
		c4.5,0.3,8.7-0.4,12.2-2.6c2-1.1,3.2,1.4,1.5,2.7c-4.2,2.2-10.2,3.1-15.1,1.4c-0.6,0.4-1.2,0.8-1.7,1.1c1.1,0.1,2.1,0,3.2-0.1
		l0.6-0.1l-0.2,0.6c-0.1,0.3-0.2,0.5-0.4,0.7c4.9,0.9,9.5,1.1,12.7-0.8c2.1-1.2,3.2,0.9,2,1.9c-4.5,3.1-10.3,2.4-16.7,0.4
		c-0.3,0.1-0.6,0.3-0.9,0.4c0.7,0.2,1.7,0.2,2.3,0.2l0.4,0l0,0.4c0,0.3-0.1,0.7-0.2,0.9c2.6,1.6,6.1,2.4,12.2,1.4
		c2.8-0.4,2.8,2.8,0.2,3c-5.4,0.6-9.9,0-14.1-2.7c-0.5,0.2-1,0.4-1.4,0.6c3.2,2.8,7.4,5.3,13.3,4.6c2.4-0.3,2.9,2.3,1.1,2.8
		c-4.7,0.5-9.7-1.3-14.3-4.7c-0.2,0-0.3,0.1-0.5,0.1c1.3,2.7,4.6,5,8.2,5.7c2.5,0.6,1.6,3.3-0.3,2.9c-5.7-1.5-8.2-4.7-9.8-8.4
		c-0.6,0-1.2-0.1-1.7-0.2c0.3,0.7,1.1,1.4,1.6,1.8l0.4,0.3l-0.4,0.3c-0.1,0.1-0.3,0.2-0.5,0.4c0.9,2.3,2.9,4.3,6.5,6.2
		c1.7,0.7,0.8,3.3-1.1,2.5c-4.2-2.2-6.3-4.9-7.2-7.9c-0.6,0.1-1.1,0.2-1.6,0.3c0.1,0.7,0.7,1.7,1,2.1l0.3,0.5l-0.3,0
		c1.3,2.2,2.8,3.9,4.8,5.2c1.9,0.8,0.7,3.1-1.3,2c-2.6-2-4.7-4.1-5.6-7c-0.5,0-1-0.1-1.5-0.2c-0.2,0.5,0,1.1,0.2,1.5l0.2,0.4
		c0.9,1.8,1.9,3.6,3.5,5.1c1.5,1.3,0.1,2.6-1,1.9c-2.6-2.2-3.9-4.8-4.1-7.5c-0.5-0.4-0.9-0.8-1.4-1.2c-0.3,3.3,0.4,5.5,1.7,7.3
		c0.9,1.3-0.3,2.8-1.6,1.7c-0.8-0.7-1.3-1.9-1.7-3.4c1.3-3.7,2.1-7.9,2.1-12.3c0-10.6-4.3-19.8-10.6-24.7c1.6-1.2,2-3,0.7-4.6l0,0
		l0,0c-1-1.6-1.5-3.6-0.3-5.2c1.1-1.4,3.1-1.8,4.8-1.4l0,0l0,0c3.3,1.5,4.2-0.4,4.2-3.4l0-0.6l0.6,0.3c0.5,0.3,0.7,0.5,1.3,0.8"/>
	<path id="XMLID_462_" class="st6" d="M89.8,67.9c2-1.6,1.9-3.7,0.7-5.1c-2.5-4,0.5-6.8,4.1-5.9c3.8,1.7,4.7-0.8,4.8-3.8
		c2.1,1.1,3.5,3.1,3.3,6.2c0.7,0,1.7-0.5,2.4-1.4c0.9,1,1,2.9,0.8,4.8c0.9-0.3,1.7-0.9,2.4-2c0.4,1.4,0.2,3.2-0.3,4.8
		c0.7,0,1.6-1.1,2.2-2.1c0.6,1.5,0.5,3.2-0.6,5c0.9,0.1,1.6-0.1,2.7-0.6c0.3,1.9-0.9,3.6-2.3,4.7c0.9,0.2,1.8,0,2.7-0.4
		c0.2,1.1-0.7,2.7-2.3,3.8c0.8,0.3,2-0.1,3.4-0.8c-0.3,1.7-0.8,3.4-2.5,4.5c0.6,0.3,1.5,0.3,2.9-0.1c0.1,1.6-2.7,2.4-3.7,3.6
		c1.3,0.2,2.7,0.1,4.1,0c-0.3,1-1.6,1.9-3.8,2.6c0.5,0.5,1.6,0.8,3.2,0.7c-0.1,1.6-1.7,2.5-4.4,3.1c0.3,1,1.1,1.7,2.2,2.1
		c-1.5,0.7-3.6,0.5-5.2,0.2c-0.1,0.9,0.9,1.9,1.9,2.6c-0.8,0.7-2.1,1.1-4.1,1.4c-0.1,0.6,0.3,1.6,1.1,2.7c-1,0.2-2.1,0.3-3.4-0.1
		c-0.4,0.5-0.4,1.3,0,2.1c-0.7-0.5-1.7-1.3-2.5-2c0-0.2,0.1-0.4,0.1-0.6c0.5,0.3,1,0.6,1.3,0.8c0-0.7,0.2-1.5,0.5-1.9
		c0.7,0.2,1.6,0.7,2.3,0.7c-0.5-1-0.5-2-0.4-3.1c1.1,0.1,2.6,0.1,3.6-0.3c-1.1-1.2-1.5-2.2-1.4-3.7l1.1,0.3c0.7,0.2,2,0.5,2.8,0.5
		c-0.3-0.4-0.9-1-1.1-1.5l-0.3-1c1.5-0.3,3.2-0.6,4.4-1.6c-1.9-0.2-2.5-0.6-3.8-1.9c1-0.1,2.7-0.7,3.5-1.3c-1.1,0-2.2,0-3-0.6
		c0.9-1.4,1.7-1.8,3.1-2.8c-1,0-2.4-0.4-3.3-0.8l1.6-1.1c0.8-0.5,1.3-1.2,1.6-2c-1.3,0.2-2.4,0.2-3.7-0.4c1.1-0.8,2.2-1.9,3-3.1
		c-1.1,0.3-2.3,0.1-3.4-0.5c1.3-1.1,2.5-1.8,3.1-3.5c-0.8,0.1-1.7,0-2.8-0.3c0.6-1.1,1-1.8,1.2-3.1c-0.9,0.8-1.3,0.7-2.4,0.7
		c0.2-1.2,0.4-2.4,0.3-3.5c-0.8,0.6-1.4,0.6-2.3,0.6c0.1-1.7,0.2-2.9-0.3-4.2c-1.1,0.8-2,0.8-3.2,0.7c0.1-1.5,0.1-3.1-0.8-4.2
		c-0.3,0.4-0.8,3.7-4.7,3c0.4,1.3,0,2.2-1.6,2.5c1,1.1,0.7,2.2-1.4,2.2c0.1,1.3-0.5,3.9-2,5.3C90.7,68.7,90.2,68.3,89.8,67.9"/>
	<path id="XMLID_459_" class="st6" d="M75.5,55.1c0.2-1.2,0.7-2,1.5-2.8c-1.4,0.8-4.8,0.7-7.1,0.4C70,55,73.7,54.1,75.5,55.1"/>
	<path id="XMLID_454_" class="st6" d="M74.9,52.5c-1.9-1.9-3.9-2.3-5.9-1c-1.3-1.7-1.4-3.1,0.9-3.8c1.5-0.3,2.7-0.1,4.2,0.1
		c-1.1,0.6-1.1,1.6,0.1,2.3C75.6,50.7,76,51.6,74.9,52.5"/>
	<path id="XMLID_437_" class="st6" d="M73.7,47.7c-1.1-0.7-0.8-2.2,0.5-2.5c2-0.3,3.2-0.5,4.5-1.7c1.4-1,3.2-1,4.2-0.1
		c1,1,0.5,2.4-1,3.4c-0.3-0.1-0.6-0.2-0.9-0.3l0,0l0,0c-2.5-0.3-4.8,0.2-7.1,1.1L73.7,47.7z"/>
	<path id="XMLID_422_" class="st7" d="M67,114.7c-2.4,2.2-3.6,5-0.2,8.4c-2.7,1.5-4.4-0.3-5.4-2.3c-1.5,1.3-1.3,3.2-0.7,6.7
		c-1.2,0.2-2.7-1.6-2.8-3.1c0-0.1,0-0.2-0.1-0.3l-1.8,1.8c-0.4,0.3-0.3,0.7,0.1,1c1.3,0.2,3.3,0.8,3.5,2.3c1.5,1.6,1.8,3.9,0.3,5.7
		l-0.8,1l0.1-1.3c0.1-0.8,0.2-1.6-0.5-2.1c-0.6,0-1.1,0.1-1.7,0.1l-0.6,0l0.2-0.6c0.5-1.5-1.3-1.3-1.6-2.5c-1.1,0.1-2.2,0-2.7-1
		c-0.8,0.6-1.6,0.7-2.4,0.1c-0.6,0.6-1.5,1.1-2.3,0.7c-0.6,0.9-1.5,1.9-2.7,1.6l-0.1,0l-0.1,0c-0.3-0.2-0.8-0.3-1.1-0.3
		c-0.7,0.1-0.9,0.7-1.1,1.3l-0.2,1l-0.5-0.8c-0.1-0.2-0.2-0.3-0.2-0.5c-0.4-1.1,0-2.4,0.7-3.3c0.7-0.8,1.6-1.3,2.7-1.3
		c0.1-0.1,0.2-0.1,0.3-0.2c-1-0.6-1.7-1.7-3-0.9l0,0l-0.4,0.2l-0.2-0.2c-0.9-1-1.5-0.6-2.5,0.1l-0.7,0.5l0.1-0.9
		c0.4-3.2,2.8-3.6,5.5-2.7c0.5-0.1,1.1,0,1.6,0.2h0c2.2-2.7,4.2-1.5,5.8,1.2c1.4-0.5,2.5-1.5,3.4-3c-0.2-0.1-0.4-0.2-0.6-0.3
		c-2.6-0.6-2.8-2.2-2.6-4.5c1.9,2.1,3.8,2.3,5.7,0.7c-1.9-1.5-2.6-2.7-2-4.6c2.2,3.1,5.2,1.4,8.6-2.1
		C64.8,112.1,65.8,113.5,67,114.7"/>
	<path id="XMLID_397_" class="st1" d="M55.3,121.5c-2.2,3.5-5.2,4.7-9.6,2.1c-1.4-0.5-2.9-0.4-3.6,1.8c2.3-1.5,2.9,1.6,5,1.3
		c-3.5,0.6-1.1,2.2-1.9,3.8c0.7,0.2,1.4-0.1,2.4-1.8c0.7,0.6,1.5,0.4,2.4-0.6c0.8,0.8,1.6,0.7,2.6-0.3c0.3,1.2,1.4,1.4,2.9,1.2
		c-0.1,1.3,2.4,1.1,1.7,3c0.6,0,1,0,1.7,0c-1.4-0.7,3.1-3.5-3-4.7c-0.7-0.5-0.6-1.2-0.1-1.7l2-2C57.3,122.6,56.6,122.1,55.3,121.5"
		/>
	<path id="XMLID_373_" class="st1" d="M45.9,123.4c1.7-2,3.2-1.7,5,1.1c-0.6,0.2-1.3,0.2-2,0h0c-0.2,0-0.3-0.1-0.5-0.1h0l0,0l-0.1,0
		h0l-0.2,0l0,0l-0.1,0h0l-0.1,0l0,0l0,0l-0.1,0l-0.1,0l0,0h0l-0.1,0l-0.1,0l0,0l-0.1,0l0,0l-0.1,0v0l-0.1,0l0,0l-0.1,0l0,0l-0.1,0
		l-0.1,0l0,0l-0.1,0l0,0l0,0l-0.1,0l0,0l0,0l0,0l0,0l0,0l0,0l0,0c-0.1-0.1-0.3-0.1-0.4-0.2h0C46.3,123.6,46.1,123.5,45.9,123.4"/>
	<path id="XMLID_328_" class="st7" d="M92,114.7c2.4,2.2,3.6,5,0.2,8.4c2.7,1.5,4.4-0.4,5.4-2.3c1.4,1.3,1.3,3.2,0.7,6.7
		c1.2,0.2,2.7-1.6,2.8-3.1c0-0.1,0-0.2,0.1-0.3l1.8,1.8c0.4,0.4,0.3,0.7-0.1,1c-1.3,0.2-3.3,0.8-3.5,2.3c-1.5,1.6-1.8,3.9-0.3,5.7
		l0.8,1l-0.1-1.3c-0.1-0.8-0.2-1.6,0.5-2.1c0.6,0,1.1,0.1,1.7,0.1l0.6,0l-0.2-0.6c-0.5-1.5,1.3-1.3,1.6-2.5c1.1,0.1,2.2,0,2.7-1
		c0.8,0.6,1.6,0.7,2.4,0.1c0.7,0.6,1.5,1.1,2.3,0.7c0.6,0.9,1.5,1.9,2.7,1.6l0.1,0l0,0c0.3-0.2,0.8-0.3,1.1-0.3
		c0.7,0.1,0.9,0.7,1.1,1.3l0.2,1l0.5-0.8c0.1-0.2,0.2-0.3,0.2-0.5c0.4-1.1,0-2.4-0.7-3.3c-0.7-0.8-1.6-1.3-2.7-1.3
		c-0.1-0.1-0.2-0.1-0.3-0.2c1-0.6,1.7-1.7,3-0.9l0,0l0.4,0.2l0.2-0.2c0.9-1,1.5-0.6,2.5,0.1l0.7,0.5l-0.1-0.9
		c-0.4-3.2-2.8-3.6-5.5-2.7c-0.5-0.1-1.1,0-1.6,0.2c-2.2-2.7-4.2-1.5-5.8,1.2c-1.4-0.5-2.5-1.5-3.5-3c0.2-0.1,0.4-0.2,0.7-0.3
		c2.6-0.6,2.8-2.2,2.6-4.5c-1.9,2.1-3.8,2.3-5.7,0.7c1.9-1.5,2.6-2.7,2-4.6c-2.2,3.1-5.2,1.4-8.6-2.1
		C94.2,112.1,93.1,113.5,92,114.7"/>
	<path id="XMLID_325_" class="st1" d="M103.6,121.6c2.4,4.1,5.6,4.1,9.6,2.1c1-0.5,2.7,0.2,3.6,1.8c-0.1-0.1-0.4-0.2-0.5-0.3
		c-0.3-0.1-0.7-0.1-1-0.1c-1.3,0.1-2.5,1.8-3.5,1.6c3.5,0.6,1.2,2.1,2,3.8c-0.7,0.2-1.4-0.1-2.4-1.8c-0.7,0.6-1.6,0.3-2.4-0.7
		c-0.8,0.8-1.7,0.7-2.7-0.3c-0.3,1.2-1.4,1.4-3,1.3c0.1,1.3-2.4,1.1-1.7,3.1c-0.6,0-1,0-1.6,0c1.4-0.7-3.2-3.4,2.9-4.6
		c0.7-0.5,0.9-1.3,0.2-1.9l-1.9-1.9c0.3-1,1-1.6,2.4-2.2"/>
	<path id="XMLID_324_" class="st1" d="M112.9,123.5c-1.7-2-3.2-1.7-5,1.1c0.6,0.2,1.3,0.2,2,0h0c0.2,0,0.3-0.1,0.5-0.1h0l0,0l0.1,0
		l0.2,0l0,0l0.1,0h0l0.1,0l0,0l0,0l0.1,0l0.1,0l0,0h0l0.1,0l0.1,0l0,0l0.1,0l0,0l0.1,0l0,0l0.1,0l0,0l0.1,0l0,0l0.1,0l0.1,0l0,0
		l0.1,0l0,0l0,0l0.1,0l0,0l0,0l0,0l0,0l0,0l0,0l0,0c0.1-0.1,0.3-0.1,0.4-0.2h0C112.6,123.7,112.8,123.6,112.9,123.5"/>
	<path id="XMLID_320_" class="st1" d="M79.5,66.1c10.2,0,18.4,11.7,18.4,26.2c0,14.4-8.3,26.2-18.4,26.2
		c-10.2,0-18.4-11.7-18.4-26.2C61,77.9,69.3,66.1,79.5,66.1 M79.5,64.1c11.3,0,20.5,12.6,20.5,28.2c0,15.6-9.2,28.2-20.5,28.2
		c-11.3,0-20.5-12.6-20.5-28.2C58.9,76.7,68.1,64.1,79.5,64.1"/>
	<polygon id="XMLID_318_" class="st3" points="93.7,106.4 91.9,103.6 89.5,95.2 89.8,95.2 	"/>
	<path id="XMLID_317_" class="st3" d="M91.9,103.9l2,3.2L81,107c0-0.1,0-0.2-0.1-0.2c0-0.1-0.1-0.2-0.1-0.2
		c-0.3-0.3-0.8-0.5-1.2-0.5v-1.5c2-1.6,4.1-1.1,6.4-0.5C88,104.6,90,105.1,91.9,103.9"/>
	<path id="XMLID_293_" class="st3" d="M80.9,101.2c1.3-0.4,2.4-0.1,3.1,0.1c0.2,0.1,0.4,0.1,0.5,0.1l0-0.2c-0.1,0-0.3-0.1-0.5-0.1
		c-0.7-0.2-1.8-0.5-3.2-0.1L80.9,101.2z M80.9,100.6c1.4-0.4,2.4-0.1,3.2,0.1c0.2,0,0.3,0.1,0.5,0.1v-0.2c-0.1,0-0.3-0.1-0.4-0.1
		c-0.8-0.2-1.8-0.5-3.2-0.1L80.9,100.6z M80.9,100c1.4-0.4,2.4-0.1,3.1,0.1c0.2,0.1,0.4,0.1,0.5,0.1V100c-0.1,0-0.3-0.1-0.5-0.1
		c-0.7-0.2-1.8-0.5-3.2-0.2L80.9,100z M80.9,99.4c1.4-0.4,2.4-0.1,3.1,0.1c0.2,0.1,0.4,0.1,0.6,0.2v-0.2c-0.2,0-0.3-0.1-0.5-0.1
		c-0.7-0.2-1.7-0.5-3.1-0.1L80.9,99.4z M80.9,98.8c1.4-0.4,2.4-0.1,3.1,0.1c0.2,0.1,0.4,0.1,0.6,0.2v-0.2c-0.2,0-0.3-0.1-0.5-0.2
		c-0.7-0.2-1.7-0.5-3.1-0.1L80.9,98.8z M80.9,98.1c1.4-0.4,2.3-0.1,3,0.1c0.3,0.1,0.5,0.1,0.7,0.2v-0.2c-0.2,0-0.4-0.1-0.6-0.2
		c-0.7-0.2-1.7-0.5-3.1-0.1L80.9,98.1z M80.9,97.6c1.4-0.4,2.4-0.1,3.1,0.1c0.2,0.1,0.4,0.1,0.6,0.2v-0.2c-0.2,0-0.3-0.1-0.5-0.1
		c-0.7-0.2-1.7-0.5-3.2-0.1L80.9,97.6z M80.8,96.9c1.4-0.4,2.3-0.1,3,0.1c0.3,0.1,0.5,0.2,0.7,0.2V97c-0.2,0-0.4-0.1-0.6-0.2
		c-0.7-0.2-1.7-0.5-3.1-0.1L80.8,96.9z M80.8,96.3c1.3-0.4,2.3-0.1,3,0.1c0.3,0.1,0.5,0.2,0.7,0.2v-0.2c-0.2,0-0.4-0.1-0.7-0.2
		c-0.7-0.2-1.7-0.5-3-0.1L80.8,96.3z M80.9,101.8c1.3-0.4,2.4-0.1,3.1,0.1c0.2,0,0.3,0.1,0.5,0.1v-0.2c-0.1,0-0.3-0.1-0.4-0.1
		c-0.7-0.2-1.8-0.5-3.2-0.2L80.9,101.8z M85.7,102.3c0.1,0.1,0.3,0.1,0.5,0.2c0.2,0.1,0.4,0.1,0.7,0.1c1.1,0.2,2.5-0.1,3.4-0.7
		l-0.1-0.2c-0.8,0.7-2.2,0.9-3.3,0.7c-0.2,0-0.4-0.1-0.6-0.1c-0.2-0.1-0.4-0.1-0.5-0.2V102.3z M85.7,101.7c0.1,0.1,0.3,0.1,0.4,0.2
		c0.2,0.1,0.4,0.1,0.6,0.1c1.1,0.2,2.3-0.1,3.3-0.7l-0.1-0.2c-0.9,0.6-2.1,0.8-3.2,0.7c-0.2,0-0.4-0.1-0.6-0.1
		c-0.2-0.1-0.3-0.1-0.5-0.2V101.7z M85.7,101.1c0.2,0.1,0.3,0.1,0.5,0.2c0.2,0.1,0.4,0.1,0.6,0.1c1,0.1,2.2,0,3.1-0.6l-0.1-0.2
		c-0.8,0.6-1.9,0.7-3,0.6c-0.2,0-0.4-0.1-0.6-0.1c-0.2-0.1-0.4-0.1-0.5-0.2h0V101.1z M85.7,100.5c0.1,0,0.3,0.1,0.4,0.1
		c0.2,0.1,0.4,0.1,0.6,0.1c1,0.1,2.2,0,3-0.5l-0.1-0.2c-0.8,0.6-1.9,0.7-2.9,0.6c-0.2,0-0.4-0.1-0.6-0.1c-0.2,0-0.3-0.1-0.4-0.1
		V100.5z M85.7,99.8c0.1,0,0.2,0.1,0.4,0.1c0.2,0.1,0.4,0.1,0.6,0.1c1,0.1,2.1,0,2.9-0.6l-0.1-0.2c-0.8,0.5-1.8,0.7-2.8,0.6
		c-0.2,0-0.4-0.1-0.6-0.1c-0.1,0-0.3-0.1-0.4-0.2V99.8z M85.7,99.3c0.1,0,0.2,0.1,0.3,0.1c0.2,0,0.4,0.1,0.6,0.1
		c0.9,0.1,1.9,0,2.7-0.5l-0.1-0.2c-0.8,0.5-1.8,0.7-2.7,0.5c-0.2,0-0.4-0.1-0.5-0.1c-0.1,0-0.3-0.1-0.4-0.1L85.7,99.3z M85.7,98.6
		c0.1,0,0.2,0.1,0.3,0.1c0.2,0,0.4,0.1,0.6,0.1c0.9,0.1,1.8,0,2.6-0.5l-0.1-0.2c-0.8,0.4-1.7,0.6-2.5,0.5c-0.2,0-0.4-0.1-0.5-0.1
		c-0.1,0-0.3-0.1-0.4-0.1V98.6z M85.7,98.1c0.1,0,0.2,0.1,0.3,0.1c0.2,0,0.4,0.1,0.5,0.1c0.8,0.1,1.7,0,2.5-0.4L89,97.7
		c-0.8,0.4-1.6,0.5-2.4,0.4c-0.2,0-0.3-0.1-0.5-0.1c-0.1,0-0.2-0.1-0.4-0.1V98.1z M85.7,97.5c0.5,0.2,1,0.3,1.5,0.3
		c0.6,0,1.1-0.2,1.6-0.5L88.8,97c-0.5,0.3-1,0.5-1.6,0.5c-0.5,0-1-0.1-1.5-0.3V97.5z M85.7,96.8c0.5,0.2,1,0.3,1.5,0.3
		c0.5,0,1-0.1,1.5-0.4l-0.1-0.2c-0.5,0.3-1,0.4-1.5,0.4c-0.5,0-1-0.1-1.5-0.3V96.8z M79.6,104.2v-0.3v-9c1.7-1.1,3.1-0.9,5-0.3
		c1.6,0.5,2.9,0.8,4.4-0.1l0.1,0.5l0.1,0.2l1.9,6.8l0.5,1.8c-1.8,1.1-3.7,0.6-5.6,0.1C83.8,103.2,81.7,102.7,79.6,104.2"/>
	<polygon id="XMLID_292_" class="st3" points="65.2,106.5 67,103.7 69.5,95.2 69.1,95.2 	"/>
	<path id="XMLID_291_" class="st3" d="M67.1,103.9l-2,3.2h12.8c0-0.1,0-0.2,0.1-0.2c0-0.1,0.1-0.2,0.1-0.2c0.3-0.3,0.8-0.5,1.2-0.5
		v-1.5c-2-1.6-4.1-1.1-6.4-0.5C70.9,104.6,68.9,105.1,67.1,103.9"/>
	<path id="XMLID_249_" class="st3" d="M78,101.2c-1.4-0.4-2.4-0.1-3.1,0.1c-0.2,0.1-0.4,0.1-0.5,0.1v-0.2c0.1,0,0.3-0.1,0.5-0.1
		c0.7-0.2,1.8-0.5,3.2-0.1V101.2z M78,100.6c-1.4-0.4-2.4-0.1-3.2,0.1c-0.2,0-0.3,0.1-0.5,0.1v-0.2c0.1,0,0.3-0.1,0.4-0.1
		c0.7-0.2,1.8-0.5,3.2-0.1V100.6z M78,100c-1.3-0.4-2.4-0.1-3.1,0.1c-0.2,0.1-0.4,0.1-0.5,0.1V100c0.1,0,0.3-0.1,0.5-0.1
		c0.7-0.2,1.8-0.5,3.2-0.2L78,100z M78.1,99.4c-1.4-0.4-2.4-0.1-3.1,0.1c-0.2,0.1-0.4,0.1-0.6,0.2v-0.2c0.2,0,0.3-0.1,0.5-0.1
		c0.7-0.2,1.7-0.5,3.1-0.1L78.1,99.4z M78.1,98.8c-1.4-0.4-2.4-0.1-3.1,0.1c-0.2,0.1-0.4,0.1-0.6,0.2v-0.2c0.2,0,0.3-0.1,0.5-0.2
		c0.7-0.2,1.7-0.5,3.1-0.1L78.1,98.8z M78.1,98.1c-1.4-0.4-2.3-0.1-3,0.1c-0.2,0.1-0.5,0.1-0.7,0.2l0-0.2c0.2,0,0.4-0.1,0.6-0.2
		c0.7-0.2,1.7-0.5,3.1-0.1L78.1,98.1z M78.1,97.6c-1.4-0.4-2.4-0.1-3.1,0.1c-0.2,0.1-0.4,0.1-0.6,0.2v-0.2c0.2,0,0.3-0.1,0.5-0.1
		c0.7-0.2,1.7-0.5,3.2-0.1L78.1,97.6z M78.1,96.9c-1.4-0.4-2.3-0.1-3,0.1c-0.3,0.1-0.5,0.2-0.7,0.2V97c0.2,0,0.4-0.1,0.6-0.2
		c0.7-0.2,1.7-0.5,3.1-0.1L78.1,96.9z M78.1,96.3c-1.3-0.4-2.3-0.1-3,0.1c-0.3,0.1-0.5,0.2-0.7,0.2v-0.2c0.2,0,0.4-0.1,0.7-0.2
		c0.7-0.2,1.7-0.5,3-0.1L78.1,96.3z M78,101.8c-1.4-0.4-2.4-0.1-3.1,0.1c-0.2,0-0.3,0.1-0.5,0.1v-0.2c0.1,0,0.3-0.1,0.4-0.1
		c0.7-0.2,1.8-0.5,3.2-0.2L78,101.8z M73.3,102.3c-0.1,0.1-0.3,0.1-0.5,0.2c-0.2,0.1-0.4,0.1-0.7,0.1c-1.1,0.2-2.5-0.1-3.4-0.7
		l0.1-0.2c0.8,0.7,2.2,0.9,3.3,0.7c0.2,0,0.4-0.1,0.6-0.1c0.2,0,0.4-0.1,0.5-0.2L73.3,102.3z M73.3,101.7c-0.1,0.1-0.3,0.1-0.4,0.2
		c-0.2,0.1-0.4,0.1-0.6,0.1c-1.1,0.1-2.3-0.1-3.2-0.7l0.1-0.2c0.9,0.6,2.1,0.8,3.2,0.7c0.2,0,0.4-0.1,0.6-0.1
		c0.2-0.1,0.3-0.1,0.5-0.2V101.7z M73.3,101.1c-0.2,0.1-0.3,0.1-0.5,0.2c-0.2,0.1-0.4,0.1-0.6,0.1c-1,0.1-2.2,0-3.1-0.6l0.1-0.2
		c0.8,0.6,2,0.7,3,0.6c0.2,0,0.4-0.1,0.6-0.1c0.2-0.1,0.4-0.1,0.5-0.2l0,0L73.3,101.1z M73.3,100.5c-0.1,0.1-0.3,0.1-0.4,0.1
		c-0.2,0.1-0.4,0.1-0.6,0.1c-1,0.2-2.2,0-3-0.5l0.1-0.2c0.8,0.6,1.9,0.7,2.9,0.5c0.2,0,0.4-0.1,0.6-0.1c0.2,0,0.3-0.1,0.4-0.1V100.5
		z M73.3,99.9c-0.1,0-0.2,0.1-0.4,0.1c-0.2,0.1-0.4,0.1-0.6,0.1c-1,0.1-2.1,0-2.9-0.6l0.1-0.2c0.8,0.5,1.8,0.7,2.8,0.6
		c0.2,0,0.4-0.1,0.6-0.1c0.1,0,0.3-0.1,0.4-0.2V99.9z M73.3,99.3c-0.1,0-0.2,0.1-0.3,0.1c-0.2,0.1-0.4,0.1-0.6,0.1
		c-0.9,0.1-1.9,0-2.8-0.5l0.1-0.2c0.8,0.5,1.8,0.7,2.7,0.5c0.2,0,0.4-0.1,0.5-0.1c0.1,0,0.3-0.1,0.4-0.1V99.3z M73.3,98.7
		c-0.1,0-0.2,0.1-0.3,0.1c-0.2,0-0.4,0.1-0.6,0.1c-0.9,0.1-1.8,0-2.6-0.5l0.1-0.2c0.8,0.4,1.7,0.6,2.5,0.5c0.2,0,0.4-0.1,0.5-0.1
		c0.1,0,0.3-0.1,0.4-0.1V98.7z M73.3,98.1c-0.1,0-0.2,0.1-0.3,0.1c-0.2,0-0.4,0.1-0.5,0.1c-0.8,0.1-1.7,0-2.5-0.4l0.1-0.2
		c0.8,0.4,1.6,0.6,2.4,0.4c0.2,0,0.3-0.1,0.5-0.1c0.1,0,0.2-0.1,0.4-0.1V98.1z M73.3,97.5c-0.5,0.2-1,0.3-1.6,0.3
		c-0.5,0-1.1-0.2-1.6-0.5l0.1-0.2c0.5,0.3,1,0.5,1.6,0.5c0.5,0,1-0.1,1.5-0.3V97.5z M73.2,96.8c-0.5,0.2-1,0.3-1.5,0.3
		c-0.5,0-1-0.1-1.5-0.4l0.1-0.2c0.5,0.3,1,0.4,1.5,0.4c0.5,0,1-0.1,1.5-0.3V96.8z M79.3,104.2v-0.3h0v-9c-1.7-1.1-3.1-0.9-5-0.3
		c-1.6,0.5-2.9,0.8-4.4-0.1L69.7,95l-0.1,0.2l-1.9,6.8l-0.5,1.8c1.8,1.1,3.7,0.6,5.6,0.1C75.2,103.3,77.2,102.8,79.3,104.2"/>
	<path id="XMLID_203_" class="st8" d="M141.9,98L141.9,98c0.4,0,0.7-0.2,0.9-0.4c0.2-0.3,0.3-0.7,0.4-1.1c0-0.4-0.1-0.7-0.2-1
		c-0.2-0.2-0.4-0.4-0.7-0.4c-0.2,0-0.4,0.1-0.5,0.3c-0.1,0.2-0.3,0.7-0.5,1.5c-0.3,1.1-0.6,1.8-0.9,2.2c-0.3,0.4-0.9,0.5-1.6,0.5
		c-0.7,0-1.3-0.3-1.7-0.9c-0.4-0.6-0.6-1.3-0.5-2.3c0-1,0.3-1.7,0.7-2.2c0.5-0.5,1.1-0.8,1.9-0.8l-0.1,1.5c-0.4,0-0.7,0.1-0.9,0.4
		c-0.2,0.3-0.3,0.6-0.4,1.1c0,0.5,0,0.9,0.2,1.2c0.2,0.3,0.4,0.4,0.7,0.4c0.3,0,0.5-0.1,0.6-0.3c0.1-0.2,0.3-0.6,0.5-1.3
		c0.3-1.2,0.6-2,1-2.4c0.3-0.4,0.8-0.6,1.5-0.6c0.7,0,1.3,0.3,1.7,0.9c0.4,0.6,0.6,1.3,0.6,2.2c0,0.9-0.3,1.5-0.7,2.1
		c-0.5,0.5-1.1,0.8-1.8,0.8L141.9,98z M142.6,88.6l-3.1-0.8l0.1,2L142.6,88.6z M136.4,85.5l7.8,2.2l0.1,0.9l0.1,0.9l-7.4,3.2
		l-0.1-0.8l-0.1-0.8l1.5-0.6l-0.2-2.9l-1.6-0.4l-0.1-0.8L136.4,85.5z M144.5,82.1l1.6,0.8l0.2,1.6l-1.7-1.4L144.5,82.1z M136.2,83
		l7.5-0.9l0.1,0.8l0.1,0.8l-7.5,0.9l-0.1-0.8L136.2,83z M139.5,76.3L139.5,76.3l0.4,1.8c0.1,0.4,0.2,0.7,0.4,0.9
		c0.2,0.2,0.5,0.2,0.8,0.2c0.3-0.1,0.6-0.2,0.7-0.4c0.1-0.2,0.1-0.5,0.1-0.9l-0.4-1.9L139.5,76.3z M135,75.6l7.5-1.5l0.1,0.8l0.6,3
		c0.1,0.7,0.1,1.3-0.2,1.8c-0.3,0.5-0.8,0.8-1.4,0.9c-0.7,0.1-1.3,0-1.7-0.4c-0.1-0.1-0.2-0.2-0.3-0.4c0,0.1,0,0.2-0.1,0.3
		c-0.2,0.5-0.6,0.8-1.2,0.9l-1.2,0.3c-0.2,0.1-0.4,0.1-0.5,0.2c-0.1,0.1-0.2,0.2-0.2,0.3l-0.2,0l-0.3-1.7c0.1-0.1,0.2-0.1,0.5-0.2
		c0.2-0.1,0.5-0.1,0.8-0.2l0.7-0.1c0.3-0.1,0.6-0.2,0.7-0.4c0.1-0.2,0.1-0.5,0-1l-0.3-1.6l-3,0.6l-0.1-0.8L135,75.6z M133.5,69.3
		l7.4-1.8l1.3,5.2l-0.7,0.2l-0.7,0.2l-0.9-3.7l-1.7,0.4l0.8,3.2l-0.6,0.2l-0.6,0.2l-0.8-3.2l-3.1,0.8l-0.2-0.8L133.5,69.3z
		 M136.4,61.8L136.4,61.8c0.3-0.2,0.5-0.4,0.6-0.8c0.1-0.4,0-0.7-0.1-1.2c-0.1-0.4-0.3-0.6-0.6-0.8c-0.3-0.1-0.5-0.2-0.8,0
		c-0.2,0.1-0.3,0.3-0.4,0.5c0,0.3,0,0.8,0.2,1.6c0.2,1.1,0.2,1.9,0,2.4c-0.2,0.5-0.6,0.8-1.2,1.1c-0.7,0.3-1.3,0.2-1.9-0.1
		c-0.6-0.4-1.1-1-1.4-1.9c-0.4-0.9-0.4-1.7-0.2-2.3c0.2-0.7,0.7-1.2,1.4-1.5l0.6,1.4c-0.4,0.2-0.6,0.4-0.7,0.8
		c-0.1,0.3-0.1,0.7,0.1,1.2c0.2,0.5,0.4,0.8,0.7,1c0.3,0.2,0.5,0.2,0.8,0.1c0.3-0.1,0.4-0.3,0.5-0.5c0-0.2,0-0.7-0.1-1.4
		c-0.2-1.2-0.2-2.1-0.1-2.6c0.1-0.5,0.5-0.9,1.1-1.1c0.7-0.3,1.3-0.2,1.9,0.1c0.6,0.3,1.1,0.9,1.4,1.8c0.3,0.8,0.4,1.5,0.2,2.2
		c-0.2,0.7-0.7,1.2-1.3,1.5L136.4,61.8z M135,51.3l1.8,0.2l0.8,1.4l-2.1-0.6L135,51.3z M133.1,53l-3.2,0.5l1,1.8L133.1,53z
		 M126.2,52.6l8-1.2l0.4,0.8l0.4,0.8l-5.5,6l-0.4-0.7l-0.4-0.7l1.1-1.2l-1.4-2.5L127,54l-0.4-0.7L126.2,52.6z M122.5,46.9
		L122.5,46.9l-0.4-0.6l-0.4-0.6l6.2-4.4l0.7,1l0.7,1l-4.1,4.6l5.7-2.3l0.7,0.9l0.7,0.9l-6.2,4.4l-0.4-0.6l-0.4-0.6l5.2-3.7h0
		l-6.1,2.5l-0.4-0.6l-0.5-0.6l4.5-4.9l0,0L122.5,46.9z M119.3,41.1c0.4,0.5,1,0.7,1.6,0.6c0.6-0.1,1.2-0.4,1.8-0.9
		c0.6-0.6,1-1.2,1-1.8c0.1-0.6-0.1-1.1-0.5-1.6c-0.4-0.5-1-0.7-1.6-0.6c-0.6,0.1-1.2,0.4-1.8,1c-0.6,0.6-0.9,1.2-1,1.7
		C118.7,40.1,118.9,40.7,119.3,41.1 M118.4,42.1c-0.8-0.8-1.1-1.7-1.1-2.7c0.1-1,0.5-1.9,1.4-2.7c0.9-0.9,1.8-1.3,2.8-1.3
		c1,0,1.9,0.4,2.6,1.2c0.8,0.8,1.1,1.7,1.1,2.7c-0.1,1-0.5,1.9-1.4,2.8c-0.9,0.8-1.8,1.3-2.8,1.3C120,43.3,119.1,42.9,118.4,42.1
		 M112.7,36.2l4.2-4.6l-1.7-1.5l0.4-0.5l0.5-0.5l4.6,4.1l-0.5,0.5l-0.5,0.5l-1.7-1.5l-4.2,4.6l-0.6-0.5L112.7,36.2z M108.1,25.9
		l-2.4,2.1l1.8,1L108.1,25.9z M102,29.2l6.1-5.2l0.8,0.5l0.8,0.5l-1.5,7.9l-0.7-0.4l-0.7-0.4l0.3-1.6l-2.5-1.4l-1.2,1.1l-0.7-0.4
		L102,29.2z M95.7,26.5L95.7,26.5L95,26.3L94.4,26l2.8-7l1.1,0.4l1.1,0.4l-1,6.1l3.5-5.1l1.1,0.4l1.1,0.4l-2.9,7.1l-0.7-0.3
		l-0.7-0.3l2.4-5.9l-3.7,5.4l-0.7-0.3L97,27.1l1.1-6.6h0L95.7,26.5z M89.9,23.7c0.6,0.2,1.2,0.1,1.6-0.3c0.5-0.4,0.8-0.9,1-1.7
		c0.2-0.8,0.2-1.5,0-2.1c-0.2-0.6-0.7-0.9-1.3-1.1c-0.6-0.2-1.2-0.1-1.7,0.3c-0.5,0.4-0.8,1-1,1.8c-0.2,0.8-0.2,1.5,0,2
		C88.9,23.1,89.3,23.5,89.9,23.7 M89.6,25c-1.1-0.3-1.8-0.9-2.3-1.7c-0.5-0.9-0.5-1.9-0.2-3.1c0.3-1.2,0.9-2.1,1.7-2.6
		c0.8-0.5,1.8-0.7,2.9-0.4c1.1,0.3,1.9,0.9,2.3,1.8c0.5,0.9,0.5,1.9,0.2,3.1c-0.3,1.2-0.9,2-1.7,2.5C91.6,25.1,90.7,25.3,89.6,25
		 M80.2,23.7L80.2,23.7l-0.7,0l-0.7,0l0.4-7.6l0.8,0l0.8,0l2.8,5.5l0.3-5.3l0.7,0l0.7,0L84.9,24l-0.8,0l-0.8,0l-2.8-5.6L80.2,23.7z
		 M72.8,15.7l0.9-1.6l1.6-0.1l-1.5,1.6L72.8,15.7z M73.8,22.9c0.6,0,1.1-0.3,1.5-0.8c0.3-0.5,0.5-1.1,0.4-2c0-0.8-0.3-1.5-0.7-1.9
		c-0.4-0.5-0.9-0.7-1.6-0.6c-0.6,0-1.1,0.3-1.5,0.8c-0.3,0.5-0.5,1.2-0.4,2c0,0.8,0.3,1.5,0.6,1.9C72.6,22.7,73.2,22.9,73.8,22.9
		 M73.9,24.2c-1.1,0.1-2-0.3-2.7-0.9c-0.7-0.7-1.1-1.6-1.1-2.8c-0.1-1.2,0.2-2.2,0.8-3c0.6-0.8,1.5-1.2,2.6-1.2c1.1-0.1,2,0.3,2.7,1
		c0.7,0.7,1.1,1.7,1.1,2.9c0.1,1.2-0.2,2.2-0.8,2.9C75.9,23.8,75,24.2,73.9,24.2 M65.8,25.6l-1.7-6l-2.2,0.6l-0.2-0.6l-0.2-0.6
		l5.9-1.7l0.2,0.6l0.2,0.7l-2.2,0.6l1.7,6l-0.8,0.2L65.8,25.6z M61.6,23.8c0.4,1,0.5,1.8,0.3,2.4c-0.2,0.6-0.9,1.2-1.9,1.6
		c-1,0.4-1.8,0.5-2.4,0.3c-0.7-0.3-1.2-0.9-1.6-1.8L54.1,22l0.7-0.3l0.7-0.3l1.9,4.4c0.2,0.5,0.5,0.8,0.8,1c0.3,0.1,0.7,0.1,1.2-0.1
		c0.5-0.2,0.8-0.5,0.9-0.8c0.1-0.3,0-0.8-0.2-1.3l-1.9-4.4l0.7-0.3l0.7-0.3L61.6,23.8z M50.2,26l0.7,3.2l1.8-1L50.2,26z M50.1,32.9
		L48.6,25l0.8-0.5l0.8-0.5l6.1,5.2l-0.7,0.4l-0.7,0.4l-1.2-1.1l-2.5,1.4l0.3,1.6l-0.7,0.4L50.1,32.9z M42.7,37.4L42.7,37.4l1-0.9
		c0.5-0.4,0.7-0.9,0.7-1.4c0-0.5-0.4-1.1-0.9-1.8c-0.5-0.6-1-0.9-1.5-1c-0.5-0.1-1,0-1.4,0.4l-1.1,1L42.7,37.4z M42.3,39.4l-5-5.7
		l0.6-0.5l1.9-1.6c0.8-0.7,1.6-1,2.4-0.9c0.8,0.1,1.6,0.6,2.4,1.5c0.9,1,1.3,1.9,1.3,2.8c0,0.9-0.4,1.7-1.2,2.4l-1.8,1.5L42.3,39.4z
		 M34.8,39l1.6,2.8l1.3-1.5L34.8,39z M36.9,45.6l-4-7l0.6-0.7l0.6-0.7l7.5,3l-0.5,0.6l-0.6,0.6L39,40.8l-1.9,2.2l0.8,1.4L37.4,45
		L36.9,45.6z M32.8,49.3L32.8,49.3l0.8-1.1c0.4-0.5,0.5-1,0.3-1.6c-0.2-0.5-0.6-1-1.3-1.5c-0.6-0.5-1.2-0.7-1.7-0.6
		c-0.5,0-0.9,0.3-1.3,0.8l-0.8,1.2L32.8,49.3z M32.9,51.3L26.7,47l0.5-0.6l1.4-2c0.6-0.9,1.3-1.3,2.1-1.4c0.8-0.1,1.7,0.2,2.7,0.9
		c1.1,0.7,1.7,1.5,2,2.4c0.2,0.8,0,1.7-0.6,2.6l-1.3,1.9L32.9,51.3z M31.5,54l-6.6-3.8l0.4-0.7l0.4-0.7l6.6,3.8l-0.4,0.7L31.5,54z
		 M25.4,54.2L25.4,54.2c-0.3-0.1-0.7-0.1-1,0c-0.3,0.2-0.6,0.5-0.8,0.9c-0.2,0.4-0.2,0.7-0.2,1c0.1,0.3,0.2,0.5,0.5,0.6
		c0.2,0.1,0.4,0.1,0.6-0.1c0.2-0.2,0.6-0.5,1.1-1.1c0.7-0.9,1.3-1.4,1.8-1.6c0.5-0.2,1-0.1,1.6,0.2c0.6,0.3,1,0.8,1.1,1.5
		c0.1,0.7,0,1.5-0.5,2.3c-0.4,0.9-1,1.4-1.6,1.7c-0.6,0.3-1.3,0.3-2.1-0.1l0.7-1.4c0.4,0.2,0.7,0.2,1,0c0.3-0.1,0.6-0.4,0.8-0.9
		c0.2-0.5,0.3-0.8,0.3-1.2c0-0.3-0.2-0.6-0.4-0.7c-0.3-0.1-0.5-0.1-0.7,0c-0.2,0.1-0.5,0.4-1,1c-0.8,1-1.4,1.5-1.9,1.8
		c-0.5,0.2-1,0.2-1.6-0.1c-0.7-0.3-1.1-0.8-1.2-1.5c-0.1-0.7,0-1.4,0.4-2.2c0.4-0.8,0.9-1.3,1.5-1.5c0.6-0.3,1.3-0.3,2,0L25.4,54.2z
		 M22.1,64.5L22.1,64.5l0.6-1.7c0.1-0.4,0.2-0.7,0.1-1c-0.1-0.2-0.3-0.4-0.6-0.5c-0.3-0.1-0.6-0.1-0.8,0c-0.2,0.1-0.4,0.4-0.5,0.7
		l-0.6,1.8L22.1,64.5z M25.6,67.4l-7.1-2.6l0.3-0.7l1-2.9c0.2-0.7,0.6-1.2,1.1-1.4c0.5-0.3,1.1-0.3,1.7-0.1c0.7,0.2,1.1,0.7,1.3,1.2
		c0,0.2,0.1,0.3,0.1,0.5c0.1-0.1,0.1-0.1,0.2-0.2c0.4-0.3,0.9-0.4,1.5-0.2l1.2,0.4c0.2,0.1,0.4,0.1,0.5,0.1c0.1,0,0.2-0.1,0.3-0.2
		l0.2,0.1l-0.6,1.6c-0.1,0-0.3,0-0.5-0.1c-0.3-0.1-0.5-0.1-0.8-0.2l-0.7-0.2c-0.3-0.1-0.6-0.1-0.8,0c-0.2,0.1-0.4,0.4-0.5,0.8
		l-0.5,1.5l2.8,1l-0.3,0.7L25.6,67.4z M23.7,74.3L23.7,74.3l-7.3-2l1.5-5.4l0.6,0.2l0.7,0.2l-1,3.9l1.6,0.4l1-3.6l0.6,0.2l0.6,0.2
		l-1,3.6l1.9,0.5l1.1-4l0.7,0.2l0.7,0.2L23.7,74.3z M14.8,80.4L14.8,80.4l0.1-0.8l0.1-0.8l6-0.6v0l-5.4-2.7l0.1-0.8l0.1-0.8l7,3.9
		l-0.1,0.7l-0.1,0.7L14.8,80.4z M22.2,84.3l-7.5-0.9l0.1-0.8l0.1-0.8l7.5,0.9l-0.1,0.8L22.2,84.3z M21.8,90.3L21.8,90.3l0,0.7l0,0.7
		l-7.6-0.4l0-0.8l0-0.8l5.5-2.8l-5.3-0.3l0-0.7l0-0.7l7.6,0.4l0,0.8l0,0.8l-5.6,2.8L21.8,90.3z M18.9,93.4c1.1-0.1,1.9,0.1,2.4,0.6
		c0.5,0.5,0.8,1.2,0.8,2.3c0.1,1-0.2,1.8-0.6,2.3c-0.5,0.5-1.2,0.8-2.3,0.9l-4.7,0.2l0-0.8l0-0.8l4.8-0.3c0.5,0,0.9-0.2,1.2-0.4
		c0.3-0.3,0.4-0.6,0.4-1.1c0-0.5-0.2-0.9-0.4-1.1c-0.3-0.2-0.7-0.3-1.3-0.3l-4.8,0.3l0-0.8l0-0.8L18.9,93.4z"/>
	<path id="XMLID_179_" class="st8" d="M114.9,149.1l1.3,2.9l1.5-1.4L114.9,149.1z M116.3,155.9l-3.2-7.4l0.7-0.6l0.7-0.6l7.2,3.7
		l-0.6,0.6l-0.6,0.6l-1.4-0.8l-2.1,2l0.7,1.5l-0.6,0.6L116.3,155.9z M114.3,157.3l-4.7-6l0.6-0.5l0.6-0.5l4.7,6l-0.6,0.5
		L114.3,157.3z M103.9,155.2L103.9,155.2l0.7-0.5l0.7-0.5l4.6,4h0l-1.8-5.8l0.7-0.4l0.7-0.5l2,7.8l-0.6,0.4l-0.6,0.4L103.9,155.2z
		 M105.9,162.8l-3.8-6.6l0.7-0.4l0.7-0.4l3.8,6.6l-0.7,0.4L105.9,162.8z M100.1,165.4L100.1,165.4l-3.2-6.9l0.7-0.3l0.7-0.3l2.6,5.7
		l3.4-1.6l0.3,0.6l0.3,0.6L100.1,165.4z M95.1,166c0.6-0.2,1-0.6,1.2-1.1c0.2-0.6,0.2-1.2-0.1-2c-0.3-0.8-0.6-1.4-1.1-1.7
		c-0.5-0.3-1.1-0.4-1.7-0.2c-0.6,0.2-1,0.6-1.2,1.2c-0.2,0.6-0.2,1.2,0.1,2c0.3,0.8,0.6,1.3,1.1,1.7C94,166.1,94.5,166.2,95.1,166
		 M95.5,167.2c-1.1,0.3-2,0.3-2.9-0.2c-0.8-0.5-1.5-1.3-1.8-2.4c-0.4-1.2-0.4-2.2,0-3.1c0.4-0.9,1.1-1.5,2.2-1.9
		c1.1-0.3,2-0.3,2.9,0.2c0.8,0.5,1.5,1.3,1.8,2.5c0.4,1.2,0.4,2.2,0,3.1C97.4,166.3,96.6,166.9,95.5,167.2 M85.7,165.7l0.3,2
		l1.9-0.3c0.4-0.1,0.7-0.2,0.9-0.4c0.2-0.2,0.2-0.5,0.2-0.9c-0.1-0.3-0.2-0.5-0.4-0.7c-0.2-0.1-0.6-0.1-1-0.1L85.7,165.7z
		 M85.2,162.8l0.3,1.6l1.8-0.3c0.4-0.1,0.7-0.2,0.8-0.4c0.2-0.2,0.2-0.4,0.2-0.7c0-0.3-0.2-0.4-0.4-0.5c-0.2-0.1-0.5-0.1-1,0
		L85.2,162.8z M84.7,169.3l-1.2-7.5l0.8-0.1l2.9-0.5c0.7-0.1,1.3,0,1.8,0.2c0.5,0.3,0.7,0.7,0.8,1.3c0.1,0.6-0.1,1.1-0.5,1.5
		c-0.1,0.1-0.1,0.1-0.2,0.2c0.2,0,0.4,0.1,0.5,0.2c0.5,0.3,0.8,0.7,0.9,1.3c0.1,0.8,0,1.4-0.4,1.9c-0.4,0.5-1.1,0.8-2,0.9l-2.7,0.4
		L84.7,169.3z M77.8,165.7l3,0.1l0,1.4l-2.9,0L77.8,165.7z M73.5,160.6l1.2-1.4l1.6,0.2l-1.7,1.3L73.5,160.6z M72.3,168.9l0.9-7.5
		l0.8,0.1l0.8,0.1l-0.9,7.5l-0.8-0.1L72.3,168.9z M70.6,163.4L70.6,163.4c0-0.4,0-0.7-0.3-0.9c-0.2-0.3-0.6-0.4-1-0.5
		c-0.4-0.1-0.7-0.1-1,0.1c-0.3,0.1-0.4,0.3-0.5,0.7c0,0.2,0,0.4,0.2,0.6c0.2,0.2,0.7,0.4,1.4,0.7c1,0.5,1.7,0.9,2,1.3
		c0.3,0.4,0.4,0.9,0.2,1.6c-0.1,0.7-0.5,1.2-1.2,1.5c-0.6,0.3-1.4,0.3-2.4,0.1c-0.9-0.2-1.6-0.6-2.1-1.1c-0.4-0.5-0.6-1.2-0.5-2
		l1.5,0.3c-0.1,0.4,0,0.7,0.2,1c0.2,0.3,0.6,0.5,1.1,0.6c0.5,0.1,0.9,0.1,1.2,0c0.3-0.1,0.5-0.3,0.6-0.6c0.1-0.3,0-0.5-0.2-0.7
		c-0.2-0.2-0.6-0.4-1.2-0.7c-1.1-0.5-1.8-1-2.2-1.4c-0.3-0.4-0.4-0.9-0.3-1.5c0.2-0.7,0.5-1.2,1.1-1.6c0.6-0.3,1.4-0.4,2.3-0.2
		c0.8,0.2,1.5,0.5,1.9,1.1c0.4,0.6,0.6,1.2,0.5,2L70.6,163.4z M61.2,165.1c0.6,0.2,1.2,0.2,1.7-0.1c0.5-0.3,0.9-0.9,1.2-1.6
		c0.3-0.8,0.3-1.5,0.2-2c-0.2-0.6-0.6-1-1.2-1.2c-0.6-0.2-1.2-0.2-1.7,0.2c-0.5,0.3-0.9,0.9-1.2,1.7c-0.3,0.8-0.3,1.4-0.1,2
		C60.1,164.4,60.5,164.8,61.2,165.1 M60.7,166.3c-1-0.4-1.8-1-2.1-1.9c-0.4-0.9-0.4-1.9,0.1-3.1c0.4-1.2,1.1-2,1.9-2.4
		c0.9-0.5,1.8-0.5,2.9-0.1c1.1,0.4,1.8,1,2.1,1.9c0.4,0.9,0.3,2-0.1,3.1c-0.4,1.1-1.1,1.9-1.9,2.4C62.7,166.7,61.7,166.7,60.7,166.3
		 M53.3,162.9l2.9-5.5l-2-1.1l0.3-0.6l0.3-0.6l5.5,2.9l-0.3,0.6l-0.3,0.6l-2-1.1l-2.9,5.5l-0.7-0.4L53.3,162.9z M48.4,158.6
		c0.5,0.4,1.1,0.4,1.7,0.2c0.6-0.2,1.1-0.6,1.5-1.3c0.5-0.7,0.7-1.4,0.6-2c0-0.6-0.3-1.1-0.9-1.4c-0.5-0.4-1.1-0.4-1.7-0.2
		c-0.6,0.2-1.1,0.7-1.5,1.4c-0.4,0.7-0.6,1.3-0.6,1.9C47.5,157.8,47.8,158.2,48.4,158.6 M47.6,159.7c-0.9-0.6-1.5-1.4-1.7-2.4
		c-0.2-1,0.1-1.9,0.7-3c0.7-1,1.5-1.7,2.4-1.9c0.9-0.3,1.9-0.1,2.8,0.5c0.9,0.6,1.5,1.4,1.6,2.4c0.2,1-0.1,2-0.8,3
		c-0.7,1-1.5,1.7-2.4,1.9C49.5,160.5,48.6,160.3,47.6,159.7 M43.4,151.1L43.4,151.1l1,0.9c0.3,0.3,0.7,0.4,0.9,0.4
		c0.3,0,0.6-0.2,0.8-0.4c0.2-0.3,0.3-0.6,0.3-0.8c0-0.3-0.2-0.6-0.6-0.9l-1-0.9L43.4,151.1z M39.5,153.1l5-5.7l0.6,0.5l1.8,1.6
		c0.7,0.6,1,1.2,1.1,1.8c0.1,0.6-0.1,1.2-0.7,1.8c-0.5,0.6-1.1,0.9-1.7,1c-0.6,0-1.3-0.3-1.9-0.8c-0.5-0.4-0.9-0.8-1.2-1l-1.8,2
		l-0.6-0.5L39.5,153.1z"/>
	<polygon id="XMLID_178_" class="st3" points="62.6,91.9 70.9,91.9 79.5,83.9 89,91.9 96.3,91.9 79.5,76.9 	"/>
	<path id="XMLID_173_" class="st1" d="M78,49.5c-0.1-0.1-0.2-0.3-0.3-0.5c0-0.3,0.1-0.6,0.3-0.7h0c-0.2,0-0.4,0.1-0.6,0.3
		c0,0.1-0.1,0.2-0.1,0.3c0,0.1,0,0.2,0.1,0.3C77.5,49.4,77.7,49.5,78,49.5L78,49.5z M78.6,48.3c0.2,0.1,0.3,0.3,0.3,0.5
		c0,0.2-0.1,0.5-0.2,0.6c0.3-0.1,0.5-0.2,0.8-0.3c0.2-0.1,0.3-0.2,0.5-0.2c-0.1-0.1-0.3-0.1-0.4-0.2C79.3,48.6,78.9,48.4,78.6,48.3z
		 M79.8,48.4c1,0.4,0.7,0.7-0.1,1.1c-0.6,0.3-1.1,0.5-1.8,0.4l0,0c-0.3-0.1-0.6-0.2-0.8-0.5C77,49.2,77,49.1,77,48.9
		c0-0.2,0-0.3,0.1-0.5c0.2-0.3,0.5-0.4,0.8-0.5l0,0C78.6,47.9,79.2,48.1,79.8,48.4z M75.8,60.6c0.7-2.4,0.7-4.1,0-5.1l0.1-0.3
		c0.2-1.1,0.9-2,1.6-2.9c0.5-0.6,0.8-1,0.5-0.8c-0.7,0.3-1.6,0.6-2.3,0.7c0.4-0.9-0.1-1.9-1.2-2.4c-0.9-0.6-0.7-1.3,0.2-1.8
		c0.4-0.2,0.3-0.5,0-0.7c2.1-0.5,4.2-0.6,6.1-0.2c4.2,1.4,5.1,5.3,3,8.2c-1.2,1.6-1.2,3.4-0.8,5.3C80.6,61.1,78.2,60.9,75.8,60.6z"
		/>
	<path id="XMLID_171_" class="st1" d="M90.2,69.3c0,0,1.4-1.2,2.1-3.1c0.6-1.7,0.4-2.9,0.4-2.9s1.6,0.1,1.9-0.8
		c0.3-0.8-0.5-1.5-0.5-1.5s1-0.1,1.5-0.8c0.5-0.8,0.1-1.8,0.1-1.8s1.6,0.3,2.7-0.3c0.7-0.4,1.2-0.9,1.5-1.4c0.3-0.4,0.4-0.8,0.4-0.8
		c0.2-0.6,0.3-0.7,0.3-0.7s0.3,0.3,0.5,0.8c0.2,0.3,0.3,0.8,0.3,1.2c0.1,1,0,2.4,0,2.4s1,0.1,1.8-0.1c0.9-0.2,1.5-0.7,1.5-0.7
		s0.4,1,0.4,2c0,1.2,0,2.4,0,2.4s0.6,0,1.1-0.1c0.6-0.1,1.3-0.6,1.3-0.6s0.1,0.8,0,1.7c-0.1,0.8-0.3,2-0.3,2s0.6,0,1.1-0.1
		c0.7-0.1,1.3-0.7,1.3-0.7s-0.1,0.9-0.4,1.5c-0.3,0.9-0.8,1.7-0.8,1.7s0.8,0.2,1.4,0.3c0.9,0.1,1.4,0,1.4,0s-0.3,0.9-1.1,1.8
		c-0.4,0.5-2.1,1.8-2.1,1.8s0.9,0.5,1.6,0.6c1.1,0.2,1.9-0.1,1.9-0.1s-0.3,0.4-1,1.3c-0.4,0.5-1,1-1.3,1.3c-0.6,0.5-0.8,0.6-0.8,0.6
		s0.1,0.1,0.3,0.1c0.3,0.1,0.5,0.2,0.7,0.3c0.2,0.1,0.6,0.1,1,0.2c0.4,0.1,0.8,0.1,1,0.1c0.3,0,0.9-0.2,0.9-0.2s-0.2,0.5-0.5,0.9
		c-0.2,0.3-0.4,0.5-0.6,0.7c-0.5,0.5-1,0.8-1.2,1c-0.6,0.4-1,0.7-1,0.7s0.8,0.3,1.5,0.5c0.2,0.1,0.5,0.1,1,0.2
		c0.5,0.1,0.9,0.1,0.9,0.1s-1.4,1-1.8,1.3c-0.2,0.1-0.5,0.4-0.9,0.9c-0.3,0.4-0.5,0.7-0.5,0.7s0.2,0.1,0.4,0.2
		c0.4,0.2,0.8,0.3,1.2,0.3c0.4,0,0.8,0,1.1,0.1c0.3,0,0.5,0,0.5,0s-0.2,0.2-0.7,0.4c-0.4,0.2-0.8,0.4-1.1,0.4
		c-0.2,0.1-0.6,0.2-0.9,0.3c-0.5,0.1-0.9,0.2-0.9,0.2s0.8,0.9,1.6,1.3c0.3,0.2,0.7,0.4,1.2,0.5c0.6,0.1,1.2,0.2,1.2,0.2
		s-0.3,0.3-0.9,0.5c-0.4,0.2-0.8,0.4-1.3,0.5c-1,0.3-2.4,0.6-2.4,0.6s0.3,1,0.5,1.4c0.2,0.5,1,1.3,1,1.3s-0.4,0-0.8-0.1
		c-0.5-0.1-1-0.2-1.2-0.2c-0.3-0.1-2.1-0.5-2.1-0.5s-0.1,1,0.2,1.9c0.1,0.3,0.3,0.8,0.6,1.2c0.3,0.4,0.6,0.7,0.6,0.7
		s-0.3,0.1-0.8,0.2c-0.3,0.1-0.7,0.1-1,0.1c-0.3,0-0.7,0-1.2,0c-0.5,0-0.9-0.1-0.9-0.1s0,0.3,0,0.7c0,0.3,0,0.7,0,0.9
		c0,0.2,0.1,0.6,0.2,1c0.1,0.4,0.2,0.7,0.2,0.7s-0.2,0-0.5-0.1c-0.3-0.1-0.6-0.2-0.7-0.2c-0.2-0.1-0.5-0.2-0.7-0.3
		c-0.3-0.1-0.5-0.2-0.5-0.2s-0.2,0.2-0.4,0.8c0,0.2-0.1,0.3-0.1,0.6c0,0.3,0,0.6,0,0.6s-0.2-0.2-0.4-0.3c-0.2-0.1-0.3-0.2-0.5-0.3
		c-0.2-0.1-0.5-0.2-0.5-0.2l-0.6,0c0,0,0.5-7,0.3-9.5c-0.8-7.4-2.2-8.9-3-12C94.8,72.8,90.2,69.3,90.2,69.3z"/>
	<path id="XMLID_7_" class="st1" d="M69.3,68.9c0,0-1.4-1.2-2.1-3.1c-0.6-1.7-0.4-2.9-0.4-2.9s-1.6,0.1-1.9-0.8
		c-0.3-0.8,0.5-1.5,0.5-1.5s-1-0.1-1.5-0.8c-0.5-0.8-0.1-1.8-0.1-1.8s-1.6,0.3-2.7-0.3c-0.7-0.4-1.2-0.9-1.5-1.4
		c-0.3-0.4-0.4-0.8-0.4-0.8c-0.2-0.6-0.3-0.7-0.3-0.7s-0.3,0.3-0.5,0.8c-0.2,0.3-0.3,0.8-0.3,1.2c-0.1,1,0,2.4,0,2.4s-1,0.1-1.8-0.1
		c-0.9-0.2-1.5-0.7-1.5-0.7s-0.4,1-0.4,2c0,1.2,0,2.4,0,2.4s-0.6,0-1.1-0.1c-0.6-0.1-1.3-0.6-1.3-0.6s-0.1,0.8,0,1.7
		c0.1,0.8,0.3,2,0.3,2s-0.6,0-1.1-0.1c-0.7-0.1-1.3-0.7-1.3-0.7s0.1,0.9,0.4,1.5c0.3,0.9,0.8,1.7,0.8,1.7s-0.8,0.2-1.4,0.3
		c-0.9,0.1-1.4,0-1.4,0s0.3,0.9,1.1,1.8c0.4,0.5,2.1,1.8,2.1,1.8s-0.9,0.5-1.6,0.6c-1.1,0.2-1.9-0.1-1.9-0.1s0.3,0.4,1,1.3
		c0.4,0.5,1,1,1.3,1.3c0.6,0.5,0.8,0.6,0.8,0.6s-0.1,0.1-0.3,0.1c-0.3,0.1-0.5,0.2-0.7,0.3c-0.2,0.1-0.6,0.1-1,0.2
		c-0.4,0.1-0.8,0.1-1,0.1c-0.3,0-0.9-0.2-0.9-0.2s0.2,0.5,0.5,0.9c0.2,0.3,0.4,0.5,0.6,0.7c0.5,0.5,1,0.8,1.2,1c0.6,0.4,1,0.7,1,0.7
		s-0.8,0.3-1.5,0.5c-0.2,0.1-0.5,0.1-1,0.2c-0.5,0.1-0.9,0.1-0.9,0.1s1.4,1,1.8,1.3c0.2,0.1,0.5,0.4,0.9,0.9
		c0.3,0.4,0.5,0.7,0.5,0.7s-0.2,0.1-0.4,0.2c-0.4,0.2-0.8,0.3-1.2,0.3c-0.4,0-0.8,0-1.1,0.1c-0.3,0-0.5,0-0.5,0s0.2,0.2,0.7,0.4
		c0.4,0.2,0.8,0.4,1.1,0.4c0.2,0.1,0.6,0.2,0.9,0.3c0.5,0.1,0.9,0.2,0.9,0.2s-0.8,0.9-1.6,1.3c-0.3,0.2-0.7,0.4-1.2,0.5
		c-0.6,0.1-1.2,0.2-1.2,0.2s0.3,0.3,0.9,0.5c0.4,0.2,0.8,0.4,1.3,0.5c1,0.3,2.4,0.6,2.4,0.6s-0.3,1-0.5,1.4c-0.2,0.5-1,1.3-1,1.3
		s0.4,0,0.8-0.1c0.5-0.1,1-0.2,1.2-0.2c0.3-0.1,2.1-0.5,2.1-0.5s0.1,1-0.2,1.9c-0.1,0.3-0.3,0.8-0.6,1.2c-0.3,0.4-0.6,0.7-0.6,0.7
		s0.3,0.1,0.8,0.2c0.3,0.1,0.7,0.1,1,0.1c0.3,0,0.7,0,1.2,0c0.5,0,0.9-0.1,0.9-0.1s0,0.3,0,0.7c0,0.3,0,0.7,0,0.9
		c0,0.2-0.1,0.6-0.2,1c-0.1,0.4-0.2,0.7-0.2,0.7s0.2,0,0.5-0.1c0.3-0.1,0.6-0.2,0.7-0.2c0.2-0.1,0.5-0.2,0.7-0.3
		c0.3-0.1,0.5-0.2,0.5-0.2s0.2,0.2,0.4,0.8c0,0.2,0.1,0.3,0.1,0.6c0,0.3,0,0.6,0,0.6s0.2-0.2,0.4-0.3c0.2-0.1,0.3-0.2,0.5-0.3
		c0.2-0.1,0.5-0.2,0.5-0.2l0.6,0c0,0-0.5-7-0.3-9.5c0.8-7.4,2.2-8.9,3-12C64.6,72.5,69.3,68.9,69.3,68.9z"/>
</g>
<path class="st8" d="M175.6,173.5h-0.6c-1.2,0-2.1-1-2.1-2.1V12.6c0-1.2,1-2.1,2.1-2.1h0.6c1.2,0,2.1,1,2.1,2.1v158.9
	C177.7,172.6,176.7,173.5,175.6,173.5z"/>
<g>
	<path class="st9" d="M217.6,51.2c-1.7,0-3.4-0.4-4.9-1.3c-1.6-0.9-2.9-2-4.1-3.5c-1.2-1.5-2.1-3.2-2.8-5.3c-0.7-2-1-4.2-1-6.6V14.1
		c0-0.5,0.2-0.7,0.6-0.7h2.6c0.4,0,0.6,0.2,0.6,0.7v20.4c0,1.7,0.3,3.2,0.8,4.7s1.2,2.7,2,3.7c0.8,1,1.8,1.9,2.9,2.4
		c1.1,0.6,2.3,0.9,3.5,0.9h7.9c1.2,0,2.4-0.3,3.5-0.9c1.1-0.6,2.1-1.4,2.9-2.4c0.8-1,1.5-2.3,2-3.7c0.5-1.4,0.8-3,0.8-4.7V14.1
		c0-0.5,0.2-0.7,0.5-0.7h2.6c0.4,0,0.6,0.2,0.6,0.7v20.4c0,2.4-0.3,4.6-1,6.6c-0.7,2-1.6,3.8-2.8,5.3c-1.2,1.5-2.6,2.6-4.1,3.5
		c-1.6,0.9-3.2,1.3-4.9,1.3H217.6z"/>
	<path class="st9" d="M242.2,14.1c0-0.2,0.1-0.3,0.2-0.5c0.1-0.1,0.2-0.2,0.4-0.2h2.6c0.2,0,0.4,0.1,0.6,0.2
		c0.2,0.1,0.4,0.3,0.6,0.5l25,29.4c0.3,0.4,0.5,0.5,0.6,0.3c0.1-0.2,0.1-0.3,0.1-0.5V14.1c0-0.1,0-0.3,0.1-0.4
		c0.1-0.2,0.2-0.2,0.3-0.2h2.8c0.1,0,0.2,0.1,0.3,0.2c0.1,0.1,0.1,0.3,0.1,0.5v36.4c0,0.2-0.1,0.3-0.2,0.5c-0.1,0.1-0.2,0.2-0.4,0.2
		h-2.6c-0.4,0-0.8-0.2-1.2-0.7l-25.1-29.4c-0.1-0.2-0.3-0.3-0.4-0.3c-0.1,0-0.2,0-0.2,0c0,0-0.1,0.1-0.1,0.2c0,0.1,0,0.2,0,0.3v29.2
		c0,0.2,0,0.3-0.1,0.5c-0.1,0.1-0.2,0.2-0.3,0.2h-2.8c-0.1,0-0.2-0.1-0.3-0.2c-0.1-0.1-0.1-0.3-0.1-0.5V14.1z"/>
	<path class="st9" d="M279.7,14.1c0-0.5,0.2-0.7,0.5-0.7h2.7c0.1,0,0.2,0.1,0.3,0.2c0.1,0.2,0.1,0.3,0.1,0.5v36.3
		c0,0.5-0.2,0.7-0.5,0.7h-2.7c-0.3,0-0.5-0.2-0.5-0.7V14.1z"/>
	<path class="st9" d="M303.2,44.3c0.1,0.4,0.4,0.6,0.7,0.6c0.3,0,0.5-0.2,0.6-0.6l11.9-30.1c0.2-0.5,0.5-0.7,0.9-0.7h2.9
		c0.4,0,0.5,0.2,0.4,0.7l-14.4,36.4c-0.2,0.4-0.5,0.7-0.9,0.7h-2.9c-0.4,0-0.7-0.2-0.9-0.7l-14.3-36.4c-0.2-0.5-0.1-0.7,0.3-0.7h2.9
		c0.2,0,0.3,0.1,0.5,0.2c0.2,0.1,0.3,0.3,0.4,0.5L303.2,44.3z"/>
	<path class="st9" d="M349.4,34.3c0,0.1,0,0.3-0.1,0.4c-0.1,0.1-0.2,0.2-0.3,0.2h-20.2c-0.5,0-0.7,0.3-0.7,0.8v10
		c0,0.4,0.1,0.6,0.4,0.6h29.4c0.2,0,0.4,0.1,0.5,0.3c0.1,0.2,0.1,0.4,0.1,0.6v3.5c0,0.2-0.1,0.3-0.2,0.5c-0.1,0.2-0.2,0.2-0.4,0.2
		h-33.1c-0.3,0-0.5-0.2-0.5-0.7V14.1c0-0.5,0.2-0.7,0.5-0.7H358c0.1,0,0.2,0.1,0.4,0.2c0.1,0.2,0.2,0.3,0.2,0.5v3.5
		c0,0.2,0,0.3-0.1,0.5c-0.1,0.2-0.3,0.3-0.5,0.3h-29.4c-0.3,0-0.4,0.2-0.4,0.6v10c0,0.6,0.2,0.9,0.7,0.9H349c0.1,0,0.2,0,0.3,0.1
		c0.1,0.1,0.1,0.2,0.1,0.3V34.3z"/>
	<path class="st9" d="M396.2,50.5c0.1,0.1,0.1,0.3,0.1,0.4c0,0.2-0.2,0.2-0.5,0.2h-3.5c-0.3,0-0.6,0-0.8-0.2
		c-0.2-0.1-0.4-0.3-0.6-0.5l-11.5-15c-0.3-0.4-0.8-0.7-1.3-0.7h-11.3c-0.5,0-0.8,0.4-0.8,1.1v14.6c0,0.2,0,0.3-0.1,0.5
		c-0.1,0.1-0.2,0.2-0.3,0.2h-2.7c-0.3,0-0.5-0.2-0.5-0.7V14.1c0-0.5,0.2-0.7,0.5-0.7h26.2c1.1,0,2.1,0.3,3,0.9
		c1,0.6,1.8,1.4,2.5,2.3c0.7,1,1.2,2.1,1.7,3.4c0.4,1.3,0.6,2.7,0.6,4.1c0,1.4-0.2,2.8-0.6,4.1c-0.4,1.3-1,2.4-1.7,3.4
		c-0.7,1-1.5,1.7-2.5,2.3s-2,0.9-3,0.9h-3.8c-0.3,0-0.5,0.1-0.5,0.3c-0.1,0.2,0,0.4,0.2,0.7L396.2,50.5z M388.9,29.8
		c0.6,0,1.1-0.2,1.6-0.5c0.5-0.3,0.9-0.7,1.3-1.3c0.4-0.5,0.7-1.1,0.9-1.8c0.2-0.7,0.3-1.4,0.3-2.2s-0.1-1.5-0.3-2.2
		c-0.2-0.7-0.5-1.3-0.9-1.8c-0.4-0.5-0.8-0.9-1.3-1.2c-0.5-0.3-1-0.5-1.6-0.5h-22.3c-0.5,0-0.7,0.3-0.7,0.9v9.2c0,0.4,0.1,0.7,0.2,1
		c0.1,0.3,0.4,0.4,0.7,0.4H388.9z"/>
	<path class="st9" d="M404.1,41.4c0.2,1.3,0.6,2.5,1.4,3.4c0.7,0.9,1.6,1.4,2.7,1.4h18.9c0.6,0,1.1-0.2,1.6-0.5
		c0.5-0.3,0.9-0.7,1.3-1.2c0.4-0.5,0.7-1.1,0.9-1.8c0.2-0.7,0.3-1.4,0.3-2.2c0-0.8-0.1-1.5-0.3-2.2c-0.2-0.7-0.5-1.3-0.9-1.8
		c-0.4-0.5-0.8-0.9-1.3-1.2c-0.5-0.3-1-0.5-1.6-0.5h-18.9c-1.1,0-2.1-0.3-3.1-0.9c-0.9-0.6-1.8-1.3-2.5-2.3c-0.7-1-1.2-2.1-1.7-3.4
		c-0.4-1.3-0.6-2.7-0.6-4.1c0-1.4,0.2-2.8,0.6-4.1c0.4-1.3,1-2.4,1.7-3.4c0.7-1,1.5-1.8,2.5-2.3c0.9-0.6,2-0.9,3.1-0.9h18.9
		c1,0,2,0.3,2.9,0.8c0.9,0.5,1.7,1.2,2.4,2.1c0.7,0.9,1.3,1.9,1.7,3.1c0.4,1.2,0.7,2.5,0.8,3.8c0,0.5,0,0.7-0.2,0.8
		c-0.1,0.1-0.3,0.1-0.4,0.1h-2.5c-0.1,0-0.2,0-0.4-0.1c-0.1,0-0.2-0.3-0.3-0.8c-0.1-1.4-0.6-2.5-1.4-3.4c-0.8-0.9-1.7-1.4-2.7-1.4
		h-18.9c-0.6,0-1.1,0.2-1.6,0.5c-0.5,0.3-0.9,0.7-1.3,1.2c-0.4,0.5-0.7,1.1-0.9,1.8c-0.2,0.7-0.3,1.4-0.3,2.2s0.1,1.5,0.3,2.2
		c0.2,0.7,0.5,1.3,0.9,1.8c0.4,0.5,0.8,1,1.3,1.3c0.5,0.3,1,0.5,1.6,0.5h18.9c1.1,0,2.1,0.3,3,0.9c1,0.6,1.8,1.3,2.5,2.3
		c0.7,1,1.2,2.1,1.7,3.4c0.4,1.3,0.6,2.7,0.6,4.1c0,1.4-0.2,2.8-0.6,4.1c-0.4,1.3-1,2.4-1.7,3.4c-0.7,1-1.5,1.7-2.5,2.3
		c-1,0.6-2,0.9-3,0.9h-18.9c-1,0-2-0.3-2.9-0.8c-0.9-0.5-1.7-1.2-2.4-2.1c-0.7-0.9-1.3-1.9-1.7-3.1c-0.4-1.2-0.7-2.5-0.8-3.8
		c0-0.5,0-0.7,0.1-0.8c0.1-0.1,0.3-0.1,0.4-0.1h2.5c0.1,0,0.2,0,0.4,0.1C404,40.6,404.1,40.9,404.1,41.4z"/>
	<path class="st9" d="M438.7,14.1c0-0.5,0.2-0.7,0.5-0.7h2.7c0.1,0,0.2,0.1,0.3,0.2c0.1,0.2,0.1,0.3,0.1,0.5v36.3
		c0,0.5-0.2,0.7-0.5,0.7h-2.7c-0.3,0-0.5-0.2-0.5-0.7V14.1z"/>
	<path class="st9" d="M446.1,14.1c0-0.5,0.2-0.7,0.5-0.7h18.9c1.9,0,3.8,0.5,5.5,1.5c1.7,1,3.3,2.3,4.6,4c1.3,1.7,2.4,3.7,3.1,6
		s1.2,4.8,1.2,7.4c0,2.7-0.4,5.1-1.2,7.4c-0.8,2.3-1.8,4.3-3.1,6c-1.3,1.7-2.8,3-4.6,4c-1.7,1-3.6,1.5-5.5,1.5h-18.9
		c-0.3,0-0.5-0.2-0.5-0.7V14.1z M476.2,32.3c0-1.9-0.3-3.8-0.9-5.5c-0.6-1.7-1.3-3.2-2.3-4.4c-1-1.3-2.1-2.2-3.4-2.9
		c-1.3-0.7-2.6-1.1-4.1-1.1h-15c-0.2,0-0.4,0.1-0.5,0.2c-0.1,0.2-0.2,0.4-0.2,0.7v26c0,0.3,0.1,0.5,0.2,0.7c0.1,0.2,0.3,0.2,0.5,0.2
		h15c1.4,0,2.8-0.4,4.1-1.1c1.3-0.7,2.4-1.7,3.4-2.9c1-1.3,1.8-2.7,2.3-4.4C475.9,36.1,476.2,34.3,476.2,32.3z"/>
	<path class="st9" d="M496.5,41.7h-8.2c-0.6,0-1,0.3-1.2,0.9l-3.1,7.8c-0.2,0.5-0.5,0.7-0.9,0.7h-2.9c-0.4,0-0.5-0.2-0.3-0.7
		l14.3-36.3c0.1-0.2,0.2-0.4,0.4-0.5c0.1-0.1,0.3-0.2,0.6-0.2h2.8c0.4,0,0.8,0.2,0.9,0.7l14.3,36.3c0.1,0.2,0.1,0.4,0.1,0.5
		c-0.1,0.1-0.2,0.2-0.4,0.2h-2.9c-0.2,0-0.3-0.1-0.5-0.2c-0.2-0.1-0.3-0.3-0.4-0.5l-3.1-7.8c-0.1-0.3-0.3-0.5-0.4-0.7
		c-0.2-0.2-0.4-0.3-0.7-0.3H496.5z M490,35.1c-0.2,0.5-0.2,0.9-0.1,1.2c0.1,0.3,0.5,0.5,0.9,0.5h5.6h5.7c0.4,0,0.7-0.2,0.9-0.5
		c0.1-0.3,0.1-0.7-0.1-1.2l-5.9-14.8c-0.1-0.4-0.4-0.6-0.6-0.6c-0.3,0-0.5,0.2-0.6,0.6L490,35.1z"/>
	<path class="st9" d="M517,14.1c0-0.5,0.2-0.7,0.5-0.7h18.9c1.9,0,3.8,0.5,5.5,1.5c1.7,1,3.3,2.3,4.6,4c1.3,1.7,2.4,3.7,3.1,6
		s1.2,4.8,1.2,7.4c0,2.7-0.4,5.1-1.2,7.4c-0.8,2.3-1.8,4.3-3.1,6c-1.3,1.7-2.8,3-4.6,4c-1.7,1-3.6,1.5-5.5,1.5h-18.9
		c-0.3,0-0.5-0.2-0.5-0.7V14.1z M547.1,32.3c0-1.9-0.3-3.8-0.9-5.5c-0.6-1.7-1.3-3.2-2.3-4.4s-2.1-2.2-3.4-2.9
		c-1.3-0.7-2.6-1.1-4.1-1.1h-15c-0.2,0-0.4,0.1-0.5,0.2c-0.1,0.2-0.2,0.4-0.2,0.7v26c0,0.3,0.1,0.5,0.2,0.7c0.1,0.2,0.3,0.2,0.5,0.2
		h15c1.4,0,2.8-0.4,4.1-1.1c1.3-0.7,2.4-1.7,3.4-2.9c1-1.3,1.8-2.7,2.3-4.4C546.8,36.1,547.1,34.3,547.1,32.3z"/>
	<path class="st9" d="M249.2,102.1H241c-0.6,0-1,0.3-1.2,0.9l-3.1,7.8c-0.2,0.5-0.5,0.7-0.9,0.7h-2.9c-0.4,0-0.5-0.2-0.3-0.7
		l14.3-36.3c0.1-0.2,0.2-0.4,0.4-0.5c0.1-0.1,0.3-0.2,0.6-0.2h2.8c0.4,0,0.8,0.2,0.9,0.7l14.3,36.3c0.1,0.2,0.1,0.4,0.1,0.5
		c-0.1,0.1-0.2,0.2-0.4,0.2h-2.9c-0.2,0-0.3-0.1-0.5-0.2c-0.2-0.1-0.3-0.3-0.4-0.5l-3.1-7.8c-0.1-0.3-0.3-0.5-0.4-0.7
		c-0.2-0.2-0.4-0.3-0.7-0.3H249.2z M242.7,95.5c-0.2,0.5-0.2,0.9-0.1,1.2c0.1,0.3,0.5,0.5,0.9,0.5h5.6h5.7c0.4,0,0.7-0.2,0.9-0.5
		c0.1-0.3,0.1-0.7-0.1-1.2l-5.9-14.8c-0.1-0.4-0.4-0.6-0.6-0.6c-0.3,0-0.5,0.2-0.6,0.6L242.7,95.5z"/>
	<path class="st9" d="M278.7,111.5c-1.7,0-3.4-0.4-4.9-1.3c-1.6-0.9-2.9-2-4.1-3.5c-1.2-1.5-2.1-3.2-2.8-5.3c-0.7-2-1-4.2-1-6.6
		V74.5c0-0.5,0.2-0.7,0.6-0.7h2.6c0.4,0,0.6,0.2,0.6,0.7v20.4c0,1.7,0.3,3.2,0.8,4.7c0.5,1.4,1.2,2.7,2,3.7c0.8,1,1.8,1.9,2.9,2.4
		c1.1,0.6,2.3,0.9,3.5,0.9h7.9c1.2,0,2.4-0.3,3.5-0.9c1.1-0.6,2.1-1.4,2.9-2.4c0.8-1,1.5-2.3,2-3.7c0.5-1.4,0.8-3,0.8-4.7V74.5
		c0-0.5,0.2-0.7,0.5-0.7h2.6c0.4,0,0.6,0.2,0.6,0.7v20.4c0,2.4-0.3,4.6-1,6.6c-0.7,2-1.6,3.8-2.8,5.3c-1.2,1.5-2.6,2.6-4.1,3.5
		c-1.6,0.9-3.2,1.3-4.9,1.3H278.7z"/>
	<path class="st9" d="M320.2,111.5h-1.3c-0.3,0-0.5-0.2-0.5-0.7V80.5c0-0.4-0.1-0.8-0.3-1.2c-0.2-0.4-0.5-0.5-1-0.5l-13.2-0.1
		c-0.1,0-0.2-0.1-0.3-0.2c-0.1-0.1-0.1-0.3-0.1-0.4v-3.6c0-0.5,0.2-0.7,0.5-0.7h16.4h16.4c0.3,0,0.5,0.2,0.5,0.7v3.6
		c0,0.2-0.1,0.3-0.2,0.4c-0.1,0.1-0.2,0.2-0.4,0.2l-13.2,0.1c-0.5,0-0.8,0.2-1,0.5c-0.2,0.4-0.3,0.7-0.3,1.2v30.4
		c0,0.4-0.2,0.7-0.5,0.7H320.2z"/>
	<path class="st9" d="M360.9,73.8c1.7,0,3.3,0.4,4.8,1.3c1.5,0.9,2.8,2.1,3.9,3.6c1.1,1.5,2,3.3,2.6,5.3c0.6,2,1,4.2,1,6.5v4.3
		c0,2.3-0.3,4.5-1,6.5c-0.6,2-1.5,3.8-2.6,5.3c-1.1,1.5-2.4,2.7-3.9,3.6c-1.5,0.9-3.1,1.3-4.8,1.3h-9.1c-1.7,0-3.3-0.4-4.8-1.3
		c-1.5-0.9-2.8-2.1-3.9-3.6c-1.1-1.5-2-3.3-2.6-5.3c-0.6-2-1-4.2-1-6.5v-4.3c0-2.3,0.3-4.4,1-6.5c0.6-2,1.5-3.8,2.6-5.3
		c1.1-1.5,2.4-2.7,3.9-3.6c1.5-0.9,3.1-1.3,4.8-1.3H360.9z M351.9,78.8c-1.2,0-2.3,0.3-3.4,0.9c-1.1,0.6-2,1.5-2.8,2.5
		c-0.8,1.1-1.4,2.3-1.9,3.7c-0.5,1.4-0.7,2.9-0.7,4.6v4.3c0,1.6,0.2,3.1,0.7,4.6c0.5,1.4,1.1,2.7,1.9,3.7s1.7,1.9,2.8,2.5
		c1.1,0.6,2.2,0.9,3.4,0.9h9.1c1.2,0,2.3-0.3,3.4-0.9c1-0.6,2-1.5,2.7-2.5s1.4-2.3,1.9-3.7c0.5-1.4,0.7-2.9,0.7-4.6v-4.3
		c0-1.6-0.2-3.1-0.7-4.6c-0.5-1.4-1.1-2.7-1.9-3.7c-0.8-1.1-1.7-1.9-2.7-2.5c-1-0.6-2.2-0.9-3.4-0.9H351.9z M352.9,70.2
		c-0.1,0.3,0,0.4,0.2,0.4h2.1c0.2,0,0.4-0.2,0.6-0.5c0.5-1.1,1-2,1.5-2.6c0.5-0.7,0.9-1.2,1.2-1.7c0.4-0.5,0.7-1,0.9-1.5
		c0.2-0.5,0.4-1.1,0.4-1.8c0-0.3-0.1-0.5-0.4-0.5h-3.5c-0.2,0-0.3,0.1-0.4,0.4L352.9,70.2z"/>
	<path class="st9" d="M377,74.5c0-0.2,0.1-0.3,0.2-0.5c0.1-0.1,0.2-0.2,0.4-0.2h2.6c0.2,0,0.4,0.1,0.6,0.2c0.2,0.1,0.4,0.3,0.6,0.5
		l25,29.4c0.3,0.4,0.5,0.5,0.6,0.3c0.1-0.2,0.1-0.3,0.1-0.5V74.5c0-0.1,0-0.3,0.1-0.4c0.1-0.2,0.2-0.2,0.3-0.2h2.8
		c0.1,0,0.2,0.1,0.3,0.2c0.1,0.1,0.1,0.3,0.1,0.5v36.4c0,0.2-0.1,0.3-0.2,0.5c-0.1,0.1-0.2,0.2-0.4,0.2h-2.6c-0.4,0-0.8-0.2-1.2-0.7
		l-25.1-29.4c-0.1-0.2-0.3-0.3-0.4-0.3c-0.1,0-0.2,0-0.2,0s-0.1,0.1-0.1,0.2c0,0.1,0,0.2,0,0.3v29.2c0,0.2,0,0.3-0.1,0.5
		c-0.1,0.1-0.2,0.2-0.3,0.2h-2.8c-0.1,0-0.2-0.1-0.3-0.2c-0.1-0.1-0.1-0.3-0.1-0.5V74.5z"/>
	<path class="st9" d="M435.9,73.8c1.7,0,3.3,0.4,4.8,1.3c1.5,0.9,2.8,2.1,3.9,3.6c1.1,1.5,2,3.3,2.6,5.3c0.6,2,1,4.2,1,6.5v4.3
		c0,2.3-0.3,4.4-1,6.5c-0.6,2-1.5,3.8-2.6,5.3c-1.1,1.5-2.4,2.7-3.9,3.6c-1.5,0.9-3.1,1.3-4.8,1.3h-9c-1.7,0-3.3-0.4-4.8-1.3
		c-1.5-0.9-2.8-2.1-3.9-3.6c-1.1-1.5-2-3.3-2.6-5.3c-0.6-2-1-4.2-1-6.5v-4.3c0-2.3,0.3-4.5,1-6.5c0.6-2,1.5-3.8,2.6-5.3
		c1.1-1.5,2.4-2.7,3.9-3.6c1.5-0.9,3.1-1.3,4.8-1.3H435.9z M426.9,78.8c-1.2,0-2.3,0.3-3.4,0.9c-1.1,0.6-2,1.5-2.8,2.5
		c-0.8,1.1-1.4,2.3-1.9,3.7c-0.5,1.4-0.7,2.9-0.7,4.5v4.3c0,1.6,0.2,3.1,0.7,4.5c0.5,1.4,1.1,2.7,1.9,3.7c0.8,1.1,1.7,1.9,2.8,2.5
		c1.1,0.6,2.2,0.9,3.4,0.9h9c1.2,0,2.3-0.3,3.4-0.9c1-0.6,2-1.5,2.7-2.5s1.4-2.3,1.9-3.7c0.5-1.4,0.7-2.9,0.7-4.5v-4.3
		c0-1.6-0.2-3.1-0.7-4.5s-1.1-2.7-1.9-3.7s-1.7-1.9-2.7-2.5c-1-0.6-2.2-0.9-3.4-0.9H426.9z"/>
	<path class="st9" d="M456,81.7c-0.1-0.1-0.2-0.2-0.3-0.2c-0.1,0-0.1,0.1-0.1,0.3v28.9c0,0.5-0.2,0.7-0.5,0.7h-2.7
		c-0.3,0-0.5-0.2-0.5-0.7V74.5c0-0.5,0.2-0.7,0.5-0.7h2.7c0.3,0.1,0.7,0.3,0.9,0.7l12.2,18.2c0.1,0.2,0.3,0.3,0.5,0.3
		c0.2,0,0.4-0.1,0.5-0.3l12.2-18.2c0.2-0.4,0.5-0.6,0.9-0.7h2.7c0.3,0,0.5,0.2,0.5,0.7v36.3c0,0.5-0.2,0.7-0.5,0.7h-2.6
		c-0.3,0-0.5-0.2-0.5-0.7V81.9c0-0.2,0-0.3-0.1-0.3c-0.1,0-0.1,0-0.2,0.2L469.5,100c-0.1,0.2-0.3,0.3-0.6,0.3
		c-0.3,0-0.5-0.1-0.6-0.3L456,81.7z"/>
	<path class="st9" d="M506.2,102.1H498c-0.6,0-1,0.3-1.2,0.9l-3.1,7.8c-0.2,0.5-0.5,0.7-0.9,0.7h-2.9c-0.4,0-0.5-0.2-0.3-0.7
		l14.3-36.3c0.1-0.2,0.2-0.4,0.4-0.5c0.1-0.1,0.3-0.2,0.6-0.2h2.8c0.4,0,0.8,0.2,0.9,0.7l14.3,36.3c0.1,0.2,0.1,0.4,0.1,0.5
		c-0.1,0.1-0.2,0.2-0.4,0.2h-2.9c-0.2,0-0.3-0.1-0.5-0.2c-0.2-0.1-0.3-0.3-0.4-0.5l-3.1-7.8c-0.1-0.3-0.3-0.5-0.4-0.7
		c-0.2-0.2-0.4-0.3-0.7-0.3H506.2z M499.7,95.5c-0.2,0.5-0.2,0.9-0.1,1.2c0.1,0.3,0.5,0.5,0.9,0.5h5.6h5.7c0.4,0,0.7-0.2,0.9-0.5
		c0.1-0.3,0.1-0.7-0.1-1.2l-5.9-14.8c-0.1-0.4-0.4-0.6-0.6-0.6s-0.5,0.2-0.6,0.6L499.7,95.5z"/>
	<path class="st9" d="M215.6,171.9h-1.3c-0.3,0-0.5-0.2-0.5-0.7v-30.4c0-0.4-0.1-0.8-0.3-1.2c-0.2-0.4-0.5-0.5-1-0.5l-13.2-0.1
		c-0.1,0-0.2-0.1-0.3-0.2c-0.1-0.1-0.1-0.3-0.1-0.4v-3.6c0-0.5,0.2-0.7,0.5-0.7h16.4H232c0.3,0,0.5,0.2,0.5,0.7v3.6
		c0,0.2-0.1,0.3-0.2,0.4c-0.1,0.1-0.2,0.2-0.4,0.2l-13.2,0.1c-0.5,0-0.8,0.2-1,0.5c-0.2,0.4-0.3,0.7-0.3,1.2v30.4
		c0,0.4-0.2,0.7-0.5,0.7H215.6z"/>
	<path class="st9" d="M256.4,134.2c1.7,0,3.3,0.4,4.8,1.3c1.5,0.9,2.8,2.1,3.9,3.6c1.1,1.5,2,3.3,2.6,5.3c0.6,2,1,4.2,1,6.5v4.3
		c0,2.3-0.3,4.4-1,6.5c-0.6,2-1.5,3.8-2.6,5.3c-1.1,1.5-2.4,2.7-3.9,3.6c-1.5,0.9-3.1,1.3-4.8,1.3h-9c-1.7,0-3.3-0.4-4.8-1.3
		c-1.5-0.9-2.8-2.1-3.9-3.6c-1.1-1.5-2-3.3-2.6-5.3c-0.6-2-1-4.2-1-6.5v-4.3c0-2.3,0.3-4.5,1-6.5c0.6-2,1.5-3.8,2.6-5.3
		c1.1-1.5,2.4-2.7,3.9-3.6c1.5-0.9,3.1-1.3,4.8-1.3H256.4z M247.4,139.2c-1.2,0-2.3,0.3-3.4,0.9c-1.1,0.6-2,1.5-2.8,2.5
		c-0.8,1.1-1.4,2.3-1.9,3.7c-0.5,1.4-0.7,2.9-0.7,4.5v4.3c0,1.6,0.2,3.1,0.7,4.5c0.5,1.4,1.1,2.7,1.9,3.7c0.8,1.1,1.7,1.9,2.8,2.5
		c1.1,0.6,2.2,0.9,3.4,0.9h9c1.2,0,2.3-0.3,3.4-0.9c1-0.6,2-1.5,2.7-2.5s1.4-2.3,1.9-3.7c0.5-1.4,0.7-2.9,0.7-4.5v-4.3
		c0-1.6-0.2-3.1-0.7-4.5c-0.5-1.4-1.1-2.7-1.9-3.7c-0.8-1.1-1.7-1.9-2.7-2.5c-1-0.6-2.2-0.9-3.4-0.9H247.4z"/>
	<path class="st9" d="M276.5,142.1c-0.1-0.1-0.2-0.2-0.3-0.2c-0.1,0-0.1,0.1-0.1,0.3v28.9c0,0.5-0.2,0.7-0.5,0.7H273
		c-0.3,0-0.5-0.2-0.5-0.7v-36.3c0-0.5,0.2-0.7,0.5-0.7h2.7c0.3,0.1,0.7,0.3,0.9,0.7l12.2,18.2c0.1,0.2,0.3,0.3,0.5,0.3
		c0.2,0,0.4-0.1,0.5-0.3l12.2-18.2c0.2-0.4,0.5-0.6,0.9-0.7h2.7c0.3,0,0.5,0.2,0.5,0.7v36.3c0,0.5-0.2,0.7-0.5,0.7H303
		c-0.3,0-0.5-0.2-0.5-0.7v-28.9c0-0.2,0-0.3-0.1-0.3c-0.1,0-0.1,0-0.2,0.2l-12.2,18.2c-0.1,0.2-0.3,0.3-0.6,0.3
		c-0.3,0-0.5-0.1-0.6-0.3L276.5,142.1z"/>
	<path class="st9" d="M318.4,162.6c-0.6,0-1,0.3-1.2,0.9l-3.1,7.8c-0.2,0.4-0.5,0.7-0.9,0.7h-2.9c-0.4,0-0.5-0.2-0.3-0.7l14.3-36.4
		c0.2-0.4,0.5-0.7,0.9-0.7h2.8c0.4,0,0.8,0.2,0.9,0.7l14.3,36.4c0.1,0.4,0,0.7-0.3,0.7h-2.9c-0.4,0-0.7-0.2-0.9-0.7l-3.1-7.8
		c-0.2-0.6-0.6-0.9-1.2-0.9h-8.2H318.4z M320.2,155.9c-0.2,0.5-0.2,0.9-0.1,1.2c0.1,0.3,0.5,0.5,0.9,0.5h5.6h5.6
		c0.5,0,0.8-0.2,0.9-0.5c0.1-0.3,0.1-0.7-0.1-1.2l-5.9-14.8c-0.1-0.4-0.4-0.6-0.6-0.6c-0.3,0-0.5,0.2-0.6,0.6L320.2,155.9z
		 M323.3,130.6c-0.1,0.3,0,0.4,0.2,0.4h2.1c0.2,0,0.4-0.2,0.6-0.5c0.5-1.1,1-2,1.4-2.6c0.5-0.7,0.9-1.2,1.2-1.7
		c0.4-0.5,0.7-1,0.9-1.5c0.2-0.5,0.4-1.1,0.4-1.8c0-0.3-0.1-0.5-0.4-0.5h-3.5c-0.2,0-0.3,0.1-0.4,0.4L323.3,130.6z"/>
	<path class="st9" d="M348.9,162.2c0.2,1.3,0.6,2.5,1.4,3.4c0.7,0.9,1.6,1.4,2.7,1.4h18.9c0.6,0,1.1-0.2,1.6-0.5
		c0.5-0.3,0.9-0.7,1.3-1.2c0.4-0.5,0.7-1.1,0.9-1.8c0.2-0.7,0.3-1.4,0.3-2.2s-0.1-1.5-0.3-2.2c-0.2-0.7-0.5-1.3-0.9-1.8
		c-0.4-0.5-0.8-0.9-1.3-1.2c-0.5-0.3-1-0.5-1.6-0.5h-18.9c-1.1,0-2.1-0.3-3.1-0.9c-0.9-0.6-1.8-1.3-2.5-2.3c-0.7-1-1.2-2.1-1.7-3.4
		c-0.4-1.3-0.6-2.7-0.6-4.1c0-1.4,0.2-2.8,0.6-4.1c0.4-1.3,1-2.4,1.7-3.4c0.7-1,1.5-1.8,2.5-2.3c0.9-0.6,2-0.9,3.1-0.9h18.9
		c1,0,2,0.3,2.9,0.8c0.9,0.5,1.7,1.2,2.4,2.1c0.7,0.9,1.3,1.9,1.7,3.1c0.4,1.2,0.7,2.5,0.8,3.8c0,0.5,0,0.7-0.2,0.8
		c-0.1,0.1-0.3,0.1-0.4,0.1h-2.5c-0.1,0-0.2,0-0.4-0.1c-0.1,0-0.2-0.3-0.3-0.8c-0.1-1.4-0.6-2.5-1.4-3.4c-0.8-0.9-1.7-1.4-2.7-1.4
		h-18.9c-0.6,0-1.1,0.2-1.6,0.5c-0.5,0.3-0.9,0.7-1.3,1.2c-0.4,0.5-0.7,1.1-0.9,1.8c-0.2,0.7-0.3,1.4-0.3,2.2s0.1,1.5,0.3,2.2
		c0.2,0.7,0.5,1.3,0.9,1.8c0.4,0.5,0.8,1,1.3,1.3c0.5,0.3,1,0.5,1.6,0.5h18.9c1.1,0,2.1,0.3,3,0.9c1,0.6,1.8,1.3,2.5,2.3
		c0.7,1,1.2,2.1,1.7,3.4c0.4,1.3,0.6,2.7,0.6,4.1s-0.2,2.8-0.6,4.1c-0.4,1.3-1,2.4-1.7,3.4c-0.7,1-1.5,1.7-2.5,2.3
		c-1,0.6-2,0.9-3,0.9h-18.9c-1,0-2-0.3-2.9-0.8c-0.9-0.5-1.7-1.2-2.4-2.1c-0.7-0.9-1.3-1.9-1.7-3.1c-0.4-1.2-0.7-2.5-0.8-3.8
		c0-0.5,0-0.7,0.1-0.8c0.1-0.1,0.3-0.1,0.4-0.1h2.5c0.1,0,0.2,0,0.4,0.1C348.7,161.4,348.8,161.7,348.9,162.2z"/>
	<path class="st9" d="M425.1,155.1c0,0.1,0,0.3-0.1,0.4c-0.1,0.1-0.2,0.2-0.2,0.2h-20.3c-0.5,0-0.7,0.3-0.7,0.8v14.8
		c0,0.2,0,0.3-0.2,0.5c-0.1,0.2-0.2,0.2-0.3,0.2h-2.7c-0.3,0-0.5-0.2-0.5-0.7v-36.4c0-0.5,0.2-0.7,0.5-0.7h33.1
		c0.1,0,0.2,0.1,0.4,0.2c0.1,0.2,0.2,0.3,0.2,0.5v3.5c0,0.2-0.1,0.4-0.1,0.5c-0.1,0.2-0.3,0.2-0.5,0.2h-29.4c-0.3,0-0.4,0.2-0.4,0.6
		v10c0,0.6,0.2,0.9,0.7,0.9h20.3c0.1,0,0.2,0,0.2,0.1c0.1,0.1,0.1,0.2,0.1,0.3V155.1z"/>
	<path class="st9" d="M471.9,171.3c0.1,0.1,0.1,0.3,0.1,0.4c0,0.2-0.2,0.2-0.5,0.2H468c-0.3,0-0.6,0-0.8-0.2
		c-0.2-0.1-0.4-0.3-0.6-0.5l-11.5-15c-0.3-0.4-0.8-0.7-1.3-0.7h-11.3c-0.5,0-0.8,0.4-0.8,1.1v14.6c0,0.2,0,0.3-0.1,0.5
		c-0.1,0.1-0.2,0.2-0.3,0.2h-2.7c-0.3,0-0.5-0.2-0.5-0.7v-36.4c0-0.5,0.2-0.7,0.5-0.7h26.2c1.1,0,2.1,0.3,3,0.9
		c1,0.6,1.8,1.4,2.5,2.3c0.7,1,1.2,2.1,1.7,3.4c0.4,1.3,0.6,2.7,0.6,4.1c0,1.4-0.2,2.8-0.6,4.1c-0.4,1.3-1,2.4-1.7,3.4
		c-0.7,1-1.5,1.7-2.5,2.3s-2,0.9-3,0.9h-3.8c-0.3,0-0.5,0.1-0.5,0.3c-0.1,0.2,0,0.4,0.2,0.7L471.9,171.3z M464.7,150.6
		c0.6,0,1.1-0.2,1.6-0.5c0.5-0.3,0.9-0.7,1.3-1.3c0.4-0.5,0.7-1.1,0.9-1.8c0.2-0.7,0.3-1.4,0.3-2.2s-0.1-1.5-0.3-2.2
		c-0.2-0.7-0.5-1.3-0.9-1.8c-0.4-0.5-0.8-0.9-1.3-1.2c-0.5-0.3-1-0.5-1.6-0.5h-22.3c-0.5,0-0.7,0.3-0.7,0.9v9.2c0,0.4,0.1,0.7,0.2,1
		c0.1,0.3,0.4,0.4,0.7,0.4H464.7z"/>
	<path class="st9" d="M478.8,122.8c0.1-0.2,0.2-0.4,0.4-0.4h3.5c0.3,0,0.4,0.2,0.4,0.5c0,0.7-0.2,1.3-0.4,1.8
		c-0.2,0.5-0.5,1-0.9,1.5c-0.4,0.5-0.8,1.1-1.2,1.7c-0.5,0.7-0.9,1.5-1.4,2.6c-0.1,0.3-0.3,0.5-0.6,0.5h-2.1c-0.2,0-0.3-0.1-0.2-0.4
		L478.8,122.8z M477.8,134.9v36.4c0,0.4,0.2,0.7,0.5,0.7h2.7c0.1,0,0.3-0.1,0.4-0.2c0.1-0.1,0.1-0.3,0.1-0.5v-36.4
		c0-0.4-0.2-0.7-0.5-0.7h-2.7C478,134.2,477.8,134.4,477.8,134.9z"/>
	<path class="st9" d="M503.6,162.5h-8.2c-0.6,0-1,0.3-1.2,0.9l-3.1,7.8c-0.2,0.5-0.5,0.7-0.9,0.7h-2.9c-0.4,0-0.5-0.2-0.3-0.7
		l14.3-36.3c0.1-0.2,0.2-0.4,0.4-0.5c0.1-0.1,0.3-0.2,0.6-0.2h2.8c0.4,0,0.8,0.2,0.9,0.7l14.3,36.3c0.1,0.2,0.1,0.4,0.1,0.5
		c-0.1,0.1-0.2,0.2-0.4,0.2H517c-0.2,0-0.3-0.1-0.5-0.2c-0.2-0.1-0.3-0.3-0.4-0.5l-3.1-7.8c-0.1-0.3-0.3-0.5-0.4-0.7
		c-0.2-0.2-0.4-0.3-0.7-0.3H503.6z M497.1,155.9c-0.2,0.5-0.2,0.9-0.1,1.2c0.1,0.3,0.5,0.5,0.9,0.5h5.6h5.7c0.4,0,0.7-0.2,0.9-0.5
		c0.1-0.3,0.1-0.7-0.1-1.2l-5.9-14.8c-0.1-0.4-0.4-0.6-0.6-0.6s-0.5,0.2-0.6,0.6L497.1,155.9z"/>
	<path class="st9" d="M525.9,162.2c0.2,1.3,0.6,2.5,1.4,3.4c0.7,0.9,1.6,1.4,2.7,1.4h18.9c0.6,0,1.1-0.2,1.6-0.5
		c0.5-0.3,0.9-0.7,1.3-1.2c0.4-0.5,0.7-1.1,0.9-1.8c0.2-0.7,0.3-1.4,0.3-2.2s-0.1-1.5-0.3-2.2c-0.2-0.7-0.5-1.3-0.9-1.8
		c-0.4-0.5-0.8-0.9-1.3-1.2c-0.5-0.3-1-0.5-1.6-0.5h-18.9c-1.1,0-2.1-0.3-3.1-0.9c-0.9-0.6-1.8-1.3-2.5-2.3c-0.7-1-1.2-2.1-1.7-3.4
		c-0.4-1.3-0.6-2.7-0.6-4.1c0-1.4,0.2-2.8,0.6-4.1c0.4-1.3,1-2.4,1.7-3.4c0.7-1,1.5-1.8,2.5-2.3c0.9-0.6,2-0.9,3.1-0.9h18.9
		c1,0,2,0.3,2.9,0.8c0.9,0.5,1.7,1.2,2.4,2.1c0.7,0.9,1.3,1.9,1.7,3.1c0.4,1.2,0.7,2.5,0.8,3.8c0,0.5,0,0.7-0.2,0.8
		c-0.1,0.1-0.3,0.1-0.4,0.1h-2.5c-0.1,0-0.2,0-0.4-0.1c-0.1,0-0.2-0.3-0.3-0.8c-0.1-1.4-0.6-2.5-1.4-3.4c-0.8-0.9-1.7-1.4-2.7-1.4
		h-18.9c-0.6,0-1.1,0.2-1.6,0.5c-0.5,0.3-0.9,0.7-1.3,1.2c-0.4,0.5-0.7,1.1-0.9,1.8c-0.2,0.7-0.3,1.4-0.3,2.2s0.1,1.5,0.3,2.2
		c0.2,0.7,0.5,1.3,0.9,1.8c0.4,0.5,0.8,1,1.3,1.3c0.5,0.3,1,0.5,1.6,0.5h18.9c1.1,0,2.1,0.3,3,0.9c1,0.6,1.8,1.3,2.5,2.3
		c0.7,1,1.2,2.1,1.7,3.4c0.4,1.3,0.6,2.7,0.6,4.1s-0.2,2.8-0.6,4.1c-0.4,1.3-1,2.4-1.7,3.4c-0.7,1-1.5,1.7-2.5,2.3
		c-1,0.6-2,0.9-3,0.9h-18.9c-1,0-2-0.3-2.9-0.8c-0.9-0.5-1.7-1.2-2.4-2.1c-0.7-0.9-1.3-1.9-1.7-3.1c-0.4-1.2-0.7-2.5-0.8-3.8
		c0-0.5,0-0.7,0.1-0.8c0.1-0.1,0.3-0.1,0.4-0.1h2.5c0.1,0,0.2,0,0.4,0.1C525.7,161.4,525.8,161.7,525.9,162.2z"/>
</g>
</svg>
